<svg width="93" height="119" viewBox="0 0 93 119" fill="none" xmlns="http://www.w3.org/2000/svg">
<path d="M62.1716 0.253109C61.9199 0.391179 61.4052 0.69034 61.0391 0.931964C60.6616 1.16208 60.2841 1.34617 60.2041 1.34617C60.124 1.34617 60.0554 1.38069 60.0554 1.43821C60.0554 1.48424 59.9524 1.57629 59.838 1.63382C59.7122 1.70285 59.1631 2.00201 58.614 2.32417C58.0649 2.63483 57.3786 3.03754 57.0926 3.19862C56.8066 3.3597 56.2576 3.69337 55.8915 3.92348C55.514 4.1536 55.1594 4.3377 55.1022 4.3377C55.045 4.3377 54.759 4.51029 54.4616 4.7174C54.1756 4.9245 53.6494 5.24667 53.3063 5.43076C52.9631 5.60335 52.5399 5.84497 52.3683 5.97154C52.2081 6.08659 52.0365 6.17864 51.9908 6.17864C51.9565 6.17864 51.6476 6.36273 51.3044 6.58134C50.9613 6.79996 50.4122 7.11062 50.0804 7.28321C49.7487 7.44429 49.3941 7.6514 49.3026 7.73194C49.2111 7.82399 48.7764 8.07711 48.3303 8.30722C47.8956 8.54885 47.3922 8.8365 47.2207 8.95156C47.0605 9.07812 46.8889 9.17017 46.8546 9.17017C46.7974 9.17017 46.1339 9.56137 44.441 10.5854C44.1321 10.781 43.6402 11.0571 43.3542 11.2067C43.0683 11.3563 42.6908 11.5749 42.4963 11.69C42.1074 11.9316 38.9273 13.7955 38.321 14.1407C38.1037 14.2673 37.8749 14.4169 37.8063 14.4629C37.7491 14.5089 37.3373 14.739 36.8911 14.9806C36.4565 15.2223 36.0103 15.4754 35.9188 15.5559C35.8273 15.625 35.5185 15.8206 35.2325 15.9817C34.9465 16.1312 34.5347 16.3728 34.3173 16.4994C34.1 16.626 33.6653 16.8676 33.345 17.0402C33.0362 17.2243 32.693 17.4314 32.6015 17.5119C32.51 17.5925 32.1439 17.7996 31.8007 17.9722C31.4576 18.1448 30.9542 18.4439 30.6911 18.6165C30.428 18.8006 30.1764 18.9502 30.1192 18.9502C30.062 18.9502 29.7646 19.1228 29.4557 19.3299C29.1354 19.5485 28.6779 19.8131 28.4262 19.9282C28.1745 20.0547 27.8199 20.2618 27.6255 20.3999C27.4424 20.538 27.0306 20.7911 26.7103 20.9522C26.1041 21.2744 25.7151 21.5045 25.6236 21.5965C25.5893 21.631 25.3605 21.7576 25.1089 21.8842C24.8572 22.0107 24.6284 22.1373 24.5941 22.1718C24.5369 22.2293 24.4454 22.2869 23.29 22.9427C22.924 23.1498 22.4092 23.472 22.1461 23.6446L21.6771 23.9667L21.6199 27.0963C21.5856 29.0868 21.517 30.2259 21.4483 30.2144C21.2081 30.1799 20.8421 30.0073 20.762 29.8923C20.7277 29.8232 20.4074 29.6276 20.0756 29.4665C19.7325 29.3055 19.4236 29.1214 19.3779 29.0638C19.3435 29.0063 19.069 28.8337 18.7601 28.6726C18.4627 28.5231 17.9823 28.2354 17.6963 28.0398C17.4103 27.8557 17.1472 27.6946 17.1129 27.6946C17.0672 27.6946 16.8841 27.5796 16.6897 27.4415C16.3808 27.2114 16.3236 27.1999 15.9232 27.338C15.6945 27.43 15.4771 27.5336 15.4428 27.5681C15.3513 27.6716 15.0081 27.8787 14.2417 28.2814C13.8642 28.4885 13.3494 28.7762 13.0978 28.9488C12.8461 29.1099 12.4343 29.3515 12.1827 29.478C11.931 29.5931 11.5192 29.8347 11.2675 29.9958C11.0159 30.1684 10.524 30.4445 10.1808 30.6171C9.83764 30.8012 9.47159 31.0083 9.38007 31.0889C9.28856 31.1694 8.92251 31.3765 8.57934 31.5491C8.23616 31.7217 7.82435 31.9518 7.66421 32.0669C7.50406 32.1704 7.14945 32.389 6.86347 32.5501C5.42214 33.3555 2.44797 35.0929 2.18487 35.277C2.02472 35.3921 1.68155 35.5762 1.42989 35.6912C1.17823 35.8063 0.754982 36.0594 0.491882 36.232L0 36.5657V41.5707V46.5758L0.320295 46.8519C0.491882 47.0015 0.686347 47.1396 0.766421 47.1396C0.846494 47.1396 1.13247 47.2892 1.40701 47.4848C1.69299 47.6688 1.96753 47.8299 2.03616 47.8299C2.09336 47.8299 2.20775 47.9105 2.28782 48.0025C2.3679 48.0946 2.51661 48.1751 2.631 48.1751C2.74539 48.1751 2.8941 48.2556 2.97417 48.3477C3.05424 48.4512 3.34022 48.6353 3.60332 48.7504C3.86642 48.8655 4.1524 49.0496 4.23247 49.1531C4.31255 49.2452 4.47269 49.3257 4.58708 49.3257C4.70148 49.3257 4.82731 49.3832 4.86162 49.4408C4.90738 49.5098 5.18192 49.6824 5.49077 49.8435C5.79963 49.993 6.24576 50.2577 6.48598 50.4303C6.7262 50.5913 7.13801 50.8215 7.40111 50.948C7.66421 51.0631 8.11033 51.3162 8.37343 51.5003C8.64797 51.6844 9.07122 51.926 9.32288 52.0411C9.57454 52.1561 9.87196 52.3287 9.98635 52.4208C10.238 52.6279 10.5697 52.812 11.2332 53.1226C11.5306 53.2607 11.8395 53.4563 11.9081 53.5484C11.9882 53.6404 12.2742 53.813 12.5373 53.9396C12.8118 54.0546 13.2579 54.3077 13.521 54.4918C13.7956 54.6644 14.1959 54.906 14.4133 55.0326C14.6306 55.1477 15.0768 55.4123 15.4085 55.6194C15.7288 55.8265 16.0376 55.9991 16.0834 55.9991C16.1292 55.9991 16.255 56.0681 16.3465 56.1602C16.4494 56.2407 16.8956 56.5054 17.3303 56.747C17.7764 56.9771 18.2111 57.2417 18.3026 57.3223C18.3941 57.4028 18.703 57.5869 18.9889 57.725C19.2749 57.8631 19.5723 58.0472 19.6638 58.1162C19.7439 58.1852 20.2129 58.4499 20.6934 58.703L21.5627 59.1747L21.6199 86.4552C21.6542 101.459 21.7 113.759 21.7343 113.793C21.7686 113.816 21.9517 113.931 22.1347 114.035C22.3292 114.138 22.638 114.322 22.821 114.449C23.0155 114.576 23.2443 114.714 23.3358 114.748C23.4273 114.794 23.5875 114.898 23.679 114.967C23.7705 115.047 24.1137 115.254 24.4225 115.427C24.7428 115.588 25.1546 115.83 25.3376 115.945C25.5321 116.071 25.921 116.301 26.2184 116.463C26.5044 116.612 26.9391 116.877 27.1679 117.038C27.4081 117.187 27.8657 117.452 28.1974 117.613C28.5406 117.774 28.8494 117.958 28.8838 118.016C28.9295 118.085 29.5472 118.131 30.3594 118.131C31.6749 118.131 31.8122 118.108 32.3269 117.82C32.6358 117.659 32.9675 117.452 33.059 117.371C33.1506 117.302 33.4937 117.095 33.8026 116.911C34.1229 116.739 34.5576 116.497 34.7749 116.37C34.9922 116.244 35.4041 116.014 35.69 115.853C35.976 115.703 36.2849 115.508 36.3764 115.427C36.4679 115.346 36.914 115.082 37.3487 114.852C37.7948 114.61 38.2867 114.322 38.4583 114.207C38.6184 114.081 38.79 113.989 38.8358 113.989C38.8701 113.989 39.179 113.805 39.5221 113.586C39.8653 113.367 40.4144 113.057 40.7461 112.884C41.0779 112.712 41.5125 112.458 41.707 112.309C41.9015 112.159 42.0959 112.033 42.1303 112.033C42.176 112.033 42.4849 111.849 42.828 111.63C43.1712 111.411 43.4801 111.227 43.5144 111.227C43.5716 111.227 45.1731 110.295 45.8708 109.858C46.031 109.766 46.317 109.605 46.5 109.501C47.1177 109.168 47.7354 108.8 48.1472 108.512C48.376 108.362 48.5934 108.236 48.6506 108.236C48.6963 108.236 49.0624 108.04 49.4513 107.799C49.8402 107.545 50.4236 107.2 50.7325 107.016C51.0528 106.832 51.4074 106.625 51.5332 106.544C51.659 106.475 51.9679 106.303 52.2196 106.176C52.4712 106.05 52.9059 105.785 53.1919 105.589C53.4779 105.405 53.741 105.244 53.7867 105.244C53.8325 105.244 54.2328 105.014 54.679 104.727C55.1251 104.439 55.5255 104.209 55.5712 104.209C55.617 104.209 55.9601 104.002 56.3376 103.749C56.7151 103.495 57.0697 103.288 57.1155 103.288C57.1727 103.288 57.4244 103.139 57.6875 102.955C57.9505 102.782 58.4539 102.483 58.797 102.31C59.1402 102.138 59.5863 101.873 59.7808 101.723C59.9753 101.574 60.1697 101.447 60.2155 101.447C60.2613 101.447 60.5587 101.275 60.8904 101.068C61.2221 100.861 61.7712 100.55 62.1144 100.366C62.4576 100.182 62.8236 99.9746 62.9151 99.894C63.0066 99.825 63.3498 99.6064 63.6587 99.4223C63.979 99.2382 64.3336 99.0311 64.4594 98.9621C64.5852 98.8815 64.917 98.6974 65.2029 98.5363C65.9922 98.1106 68.4974 96.6379 69.2753 96.1431C69.6528 95.89 69.9959 95.6944 70.0417 95.6944C70.2133 95.6944 71.3801 94.866 71.4945 94.6704C71.5631 94.5323 71.6089 93.3242 71.6089 91.5868C71.6089 88.7333 71.6661 88.2731 71.9406 88.6068C72.0207 88.6988 72.2952 88.8829 72.5583 89.021C72.8214 89.1591 73.1303 89.3547 73.2332 89.4467C73.3476 89.5503 73.6793 89.7459 73.9768 89.8954C74.2742 90.045 74.686 90.2751 74.869 90.4017C75.0635 90.5283 75.441 90.7354 75.7269 90.8849C76.0129 91.023 76.3904 91.2531 76.562 91.4027C76.745 91.5523 76.928 91.6673 76.9738 91.6673C77.0196 91.6673 77.4886 91.4142 78.0033 91.092C78.5181 90.7814 78.9642 90.5167 78.9985 90.5167C79.0328 90.5167 79.3188 90.3327 79.6506 90.114C79.9708 89.8954 80.2797 89.7113 80.3369 89.7113C80.3827 89.7113 80.7258 89.5272 81.0804 89.2856C81.4351 89.0555 81.9384 88.7563 82.19 88.6183C82.8421 88.2731 83.2081 88.0545 83.2768 87.9855C83.3111 87.9509 83.5399 87.8244 83.7915 87.6978C84.0432 87.5712 84.272 87.4447 84.3063 87.4102C84.3978 87.3181 84.7982 87.0765 85.393 86.7658C85.7133 86.6047 86.1251 86.3516 86.3081 86.2135C86.5026 86.0755 86.8572 85.8684 87.1089 85.7418C87.3605 85.6267 87.7723 85.3966 88.024 85.224C88.2756 85.0515 88.7675 84.7638 89.1107 84.5797C89.4539 84.3956 89.8657 84.1655 90.0258 84.0619C90.186 83.9584 90.5635 83.7283 90.8723 83.5442C91.1926 83.3601 91.6731 83.0724 91.959 82.8883C92.245 82.7158 92.5996 82.5087 92.7483 82.4396L93 82.3131V77.239V72.1649L92.6339 71.9347C92.4395 71.8082 92.0734 71.5896 91.8332 71.463C91.593 71.3249 91.2956 71.1293 91.1926 71.0258C91.0782 70.9222 90.8952 70.8417 90.7922 70.8417C90.6893 70.8417 90.5749 70.7842 90.5406 70.7266C90.4948 70.6576 90.2203 70.485 89.9114 70.3239C89.614 70.1744 89.1336 69.8867 88.8476 69.6911C88.5616 69.507 88.2871 69.3459 88.2184 69.3459C88.1613 69.3459 88.0469 69.2654 87.9668 69.1733C87.8867 69.0813 87.738 69.0007 87.6236 69.0007C87.5207 69.0007 87.3376 68.8972 87.2232 68.7706C87.1089 68.6441 86.9716 68.5405 86.9029 68.5405C86.8458 68.5405 86.5712 68.3794 86.2852 68.1953C85.9993 67.9997 85.5303 67.7121 85.2328 67.551C84.9469 67.4014 84.5579 67.1713 84.3635 67.0447C84.1804 66.9182 83.7572 66.6881 83.4369 66.5385C83.1166 66.3774 82.7963 66.1703 82.7162 66.0898C82.6476 65.9977 82.3387 65.8021 82.0413 65.664C81.3664 65.3534 81.0461 65.1693 80.7945 64.9507C80.6801 64.8586 80.3712 64.686 80.0967 64.571C79.8336 64.4559 79.559 64.2948 79.479 64.2028C79.4103 64.1107 79.0786 63.9151 78.7469 63.7541C78.4037 63.593 78.1063 63.4204 78.072 63.3514C78.0262 63.2938 77.6144 63.0637 77.1568 62.8336C76.6878 62.6035 76.2417 62.3388 76.1731 62.2468C76.093 62.1547 75.7956 61.9822 75.5096 61.8441C75.2236 61.7175 74.9033 61.5449 74.8118 61.4644C74.7203 61.3839 74.2856 61.1192 73.8395 60.8891C73.4048 60.6705 72.9701 60.4059 72.8672 60.3253C72.7756 60.2333 72.4782 60.0607 72.2151 59.9226C71.952 59.7845 71.666 59.5659 71.5974 59.4279C71.4945 59.2323 71.4716 52.8925 71.5173 32.1474L71.586 5.1316L71.1398 4.84396C70.8996 4.69439 70.6708 4.56781 70.6251 4.56781C70.5908 4.56781 70.3277 4.40674 70.0417 4.22264C69.7557 4.02704 69.2753 3.73939 68.9779 3.58981C68.669 3.42873 68.3945 3.25614 68.3487 3.18711C68.3144 3.12958 68.0055 2.94548 67.6852 2.7844C67.3535 2.62332 66.9417 2.3932 66.7472 2.26664C66.5642 2.15158 65.9808 1.82942 65.4546 1.56478C64.9284 1.30015 64.3221 0.966477 64.1048 0.805395C63.876 0.655818 63.4528 0.414197 63.1668 0.264621L62.6291 -1.67128e-05L62.1716 0.253109ZM64.7111 4.76342C66.8845 5.85648 66.8502 5.81045 65.9122 6.37424C65.6148 6.54683 65.2258 6.78845 65.0314 6.892C64.8483 7.00706 64.5624 7.16815 64.4022 7.23719C64.2421 7.31773 64.0934 7.40977 64.059 7.45579C64.0247 7.49031 63.7159 7.6744 63.3727 7.8585C63.0295 8.04259 62.7207 8.22669 62.6863 8.27271C62.652 8.31874 62.3889 8.47982 62.1144 8.6294C61.8284 8.79048 61.2908 9.10113 60.9247 9.33125C60.5472 9.56137 60.1926 9.74547 60.1354 9.74547C60.0782 9.74547 59.7808 9.92956 59.4834 10.1482C59.186 10.3668 58.8886 10.5509 58.8314 10.5509C58.7627 10.5509 58.5111 10.6889 58.2708 10.85C58.0306 11.0226 57.5959 11.2873 57.31 11.4483C57.024 11.6094 56.6122 11.8395 56.3948 11.9661C56.1775 12.0927 55.7657 12.3343 55.4797 12.4954C55.1937 12.6449 54.8162 12.8981 54.6218 13.0246C54.4387 13.1627 54.107 13.3468 53.9125 13.4389C53.7066 13.5309 53.5351 13.6345 53.5351 13.6805C53.5351 13.738 53.4664 13.7725 53.3749 13.7725C53.2834 13.7725 53.1347 13.8416 53.0546 13.9221C52.9745 14.0026 52.7229 14.1522 52.5055 14.2558C52.2882 14.3708 51.8192 14.6355 51.476 14.8541C51.1328 15.0727 50.6753 15.3603 50.4694 15.4869C50.2635 15.625 50.0118 15.7285 49.9203 15.7285C49.8288 15.7285 49.7601 15.763 49.7601 15.8206C49.7601 15.8666 49.5657 16.0047 49.3369 16.1312C49.0967 16.2578 48.6963 16.4879 48.4446 16.649C48.193 16.8216 47.8384 17.0402 47.6439 17.1322C47.0033 17.4544 46.5 17.7421 46.4428 17.8111C46.4085 17.8571 46.1339 18.0182 45.8137 18.1908C45.5048 18.3634 45.093 18.5935 44.8985 18.7085C44.7155 18.8236 44.3037 19.0537 43.9834 19.2263C43.6745 19.4104 43.2856 19.6405 43.1255 19.7556C42.9653 19.8706 42.5077 20.1238 42.1074 20.3309C41.6956 20.538 41.2952 20.7681 41.2037 20.8601C41.1122 20.9522 40.8834 21.1018 40.6889 21.1938C40.483 21.2859 40.117 21.493 39.8653 21.6425C39.6137 21.8036 39.2247 22.0222 39.0074 22.1258C38.79 22.2409 38.4011 22.471 38.1494 22.6321C37.8978 22.8046 37.4059 23.0923 37.0627 23.2649C36.7196 23.4375 36.3535 23.6446 36.262 23.7251C36.1705 23.8057 35.8616 24.0013 35.5756 24.1508C35.2897 24.3119 34.855 24.5535 34.6033 24.7031C34.3517 24.8527 33.9399 25.0828 33.6882 25.2324C32.407 25.9457 31.469 26.498 31.0229 26.8087L30.531 27.1424L29.6502 26.7051C29.1697 26.4635 28.5177 26.1068 28.1974 25.9227C27.8886 25.7271 27.4768 25.4855 27.2823 25.3935C27.0993 25.3014 26.8247 25.1403 26.6875 25.0368C26.3443 24.7837 26.3557 24.7721 27.9343 23.9092C28.1974 23.7596 28.5063 23.5755 28.5978 23.495C28.6893 23.4144 28.9982 23.2189 29.2841 23.0693C29.5701 22.9082 30.0048 22.6666 30.2565 22.517C30.5081 22.3674 30.9428 22.1258 31.2059 21.9762C31.4804 21.8266 31.8808 21.5735 32.0753 21.4239C32.2812 21.2629 32.4985 21.1363 32.5557 21.1363C32.6244 21.1363 33.0476 20.9062 33.5052 20.6185C33.9627 20.3309 34.3745 20.1008 34.4203 20.1008C34.4546 20.1008 34.752 19.9282 35.0609 19.7211C35.3812 19.5025 35.9188 19.1803 36.262 18.9962C36.6052 18.8236 37.0513 18.559 37.2343 18.4324C37.4288 18.2943 37.7376 18.1217 37.9207 18.0297C38.1151 17.9376 38.3439 17.8111 38.4354 17.7305C38.607 17.5925 39.0646 17.3278 39.8081 16.9251C40.0255 16.7986 40.2314 16.672 40.2657 16.6375C40.3 16.5915 40.6089 16.4189 40.952 16.2463C41.2952 16.0737 41.6041 15.8896 41.6384 15.8436C41.6727 15.7976 41.9015 15.648 42.1531 15.5099C42.4048 15.3833 42.8166 15.1417 43.0683 14.9806C43.3199 14.8311 43.7089 14.6125 43.9262 14.5089C44.1435 14.3938 44.4867 14.1982 44.6697 14.0602C44.8642 13.9221 45.276 13.669 45.6077 13.5079C45.928 13.3353 46.2255 13.1512 46.2712 13.0822C46.3055 13.0246 46.4428 12.9671 46.5686 12.9671C46.683 12.9671 46.786 12.9211 46.786 12.8636C46.786 12.806 47.0033 12.6449 47.2779 12.5184C47.541 12.3803 47.9642 12.1387 48.2159 11.9891C48.4675 11.828 48.8793 11.5979 49.131 11.4713C49.3827 11.3563 49.7716 11.1147 49.9889 10.9536C50.2063 10.7925 50.6066 10.5509 50.8697 10.4358C51.1328 10.3208 51.579 10.0676 51.8649 9.87202C52.1395 9.67642 52.4941 9.46932 52.6428 9.40028C52.7915 9.34275 53.169 9.13566 53.4779 8.94006C53.7982 8.74446 54.4159 8.41078 54.8506 8.18067C55.2967 7.95055 55.6742 7.72043 55.7085 7.6744C55.7428 7.62838 56.2804 7.31772 56.9096 6.98405C57.5387 6.66188 58.1107 6.33972 58.1679 6.29369C58.2365 6.24767 58.5454 6.06358 58.8542 5.87949C59.1745 5.7069 59.6321 5.44227 59.8838 5.29269C60.1354 5.14312 60.6731 4.84396 61.0849 4.62535C61.4967 4.40674 61.9542 4.13059 62.1144 4.00403C62.2745 3.87746 62.4804 3.7624 62.572 3.7624C62.6635 3.7624 63.6358 4.21114 64.7111 4.76342ZM68.4173 36.232C68.4631 63.3514 68.4631 63.4664 68.2343 63.639C68.1085 63.7426 67.7539 63.9727 67.4336 64.1683C66.5985 64.6745 66.4384 64.7666 66.038 65.0542C65.8435 65.2038 65.6376 65.3189 65.5919 65.3189C65.5461 65.3189 65.3517 65.4339 65.1572 65.5835C64.4594 66.1128 64.448 66.1013 64.3679 64.8816C64.3221 64.2603 64.2878 53.0076 64.2878 39.8564C64.2878 16.5569 64.2878 15.9586 64.0705 15.9586C63.9561 15.9586 63.7959 16.0277 63.7273 16.1197C63.6472 16.2118 63.3041 16.4189 62.9494 16.5915C62.5948 16.7525 62.0915 17.0402 61.8399 17.2128C61.5768 17.3969 61.1649 17.627 60.9133 17.7421C60.6616 17.8686 60.307 18.0757 60.1125 18.2138C59.9295 18.3519 59.5177 18.605 59.1974 18.7661C58.8886 18.9387 58.4767 19.1688 58.2823 19.2838C58.0993 19.3989 57.7103 19.6175 57.4243 19.7786C57.1384 19.9397 56.7266 20.1813 56.5092 20.3079C56.2919 20.4344 55.8801 20.676 55.5941 20.8256C55.1137 21.0788 53.4779 22.0453 52.6771 22.5285C52.4941 22.6436 52.1509 22.8277 51.9336 22.9427C51.7162 23.0463 51.2701 23.3109 50.9384 23.518C50.6066 23.7251 50.3207 23.8977 50.2863 23.8977C50.2291 23.8977 49.2225 24.496 47.5295 25.52C47.3465 25.6351 47.0033 25.8192 46.786 25.9227C46.5686 26.0378 46.2483 26.2219 46.0882 26.3254C45.928 26.4405 45.1273 26.9122 44.3151 27.384C43.503 27.8442 42.4506 28.4885 41.9701 28.7992C41.4897 29.1099 40.952 29.455 40.769 29.5586C40.586 29.6621 39.9454 30.0649 39.3506 30.4445C38.7557 30.8242 37.8177 31.3995 37.2686 31.7332L36.2734 32.3315L36.2048 32.9758C36.1705 33.3325 36.0904 33.9769 36.0103 34.4256C35.9417 34.8973 35.8731 37.2215 35.8502 40.1095L35.8273 44.988L34.9236 45.4942C34.4317 45.7819 33.9856 46.0465 33.917 46.104C33.631 46.3342 32.224 47.013 32.1325 46.9555C32.0753 46.921 32.0295 43.2161 32.0295 38.4526V30.0073L32.3269 29.7772C32.4985 29.6391 32.6815 29.5356 32.7387 29.5356C32.7959 29.5356 33.059 29.386 33.3221 29.2019C33.5852 29.0293 34.0886 28.7302 34.4317 28.5576C34.7749 28.385 35.221 28.1204 35.4041 27.9823C35.5985 27.8442 35.9531 27.6371 36.2048 27.522C36.4565 27.407 36.914 27.1424 37.2343 26.9237C37.5432 26.7166 37.8406 26.5441 37.8978 26.5441C37.955 26.5441 38.2066 26.3945 38.4697 26.2104C38.7328 26.0378 39.2362 25.7386 39.5793 25.566C39.9225 25.3935 40.3686 25.1288 40.5517 25.0023C40.7461 24.8642 41.1007 24.6456 41.3524 24.519C41.6041 24.404 41.8328 24.2659 41.8443 24.2084C41.8672 24.1623 41.9244 24.1278 41.9815 24.1278C42.0731 24.1278 42.5421 23.8517 44.0063 22.9542C44.3952 22.7126 44.7613 22.517 44.807 22.517C44.8642 22.517 45.093 22.3904 45.3103 22.2409C45.5391 22.0798 45.9738 21.8151 46.2827 21.6425C46.5915 21.47 47.0033 21.2398 47.1863 21.1248C47.3808 21.0097 47.7354 20.8026 47.9871 20.6645C48.2387 20.5265 48.6506 20.2733 48.9022 20.1123C49.1539 19.9397 49.5199 19.7326 49.7029 19.6405C49.8974 19.5485 50.252 19.3414 50.5037 19.1918C50.7553 19.0307 51.0642 18.8581 51.19 18.7891C51.5103 18.605 53.0203 17.719 53.7066 17.3048C54.0269 17.1207 54.5417 16.8216 54.8506 16.649C55.3539 16.3844 56.738 15.5674 58.6827 14.4053C59.369 13.9911 59.9753 13.646 60.6845 13.2548C61.4509 12.829 63.9904 11.3333 64.1162 11.2412C64.1849 11.1952 64.4594 11.0226 64.7454 10.8615C66.3583 9.95257 67.2505 9.4348 67.548 9.21619C67.9598 8.92855 68.2114 8.82499 68.303 8.92854C68.3487 8.96306 68.4059 21.2513 68.4173 36.232ZM61.0849 43.6878C61.0849 59.1747 61.0506 65.8942 60.959 65.8942C60.8561 65.8942 60.5243 65.7216 59.1631 64.9507C58.9572 64.8356 58.717 64.7436 58.6255 64.7436C58.5339 64.7436 58.4539 64.6976 58.4539 64.6515C58.4539 64.594 58.2022 64.4444 57.8819 64.3064C57.4587 64.1223 57.2985 63.9727 57.2299 63.7426C57.1841 63.5585 57.1498 54.5033 57.1384 43.5958V23.7711L57.4243 23.5525C57.5845 23.426 57.8705 23.2534 58.0649 23.1613C58.248 23.0693 58.4996 22.8852 58.6255 22.7471C58.7399 22.6205 58.8771 22.517 58.9343 22.517C58.9915 22.517 59.3118 22.3444 59.6435 22.1373C59.9638 21.9417 60.3413 21.7116 60.4672 21.631C60.5815 21.562 60.776 21.493 60.8904 21.493C61.0734 21.4815 61.0849 22.609 61.0849 43.6878ZM53.7638 37.4171C53.7638 43.9064 53.741 49.2106 53.7066 49.2106C53.6723 49.2106 53.455 49.0956 53.2148 48.946C52.986 48.7964 52.6085 48.5893 52.3911 48.4858C52.1738 48.3707 51.5332 48.0025 50.9727 47.6573C50.4122 47.3122 49.9089 47.0245 49.8631 47.0245C49.8059 47.0245 49.7601 46.99 49.7601 46.9325C49.7601 46.8864 49.5428 46.7484 49.2683 46.6218C49.0052 46.4952 48.5247 46.2306 48.193 46.0235C47.8613 45.8164 47.5638 45.6438 47.5295 45.6438C47.4952 45.6438 47.2207 45.4712 46.9232 45.2641C46.6258 45.057 46.1797 44.7924 45.928 44.6773C45.6764 44.5508 45.2531 44.3091 44.99 44.1365C44.7269 43.9524 44.4867 43.8029 44.441 43.8029C44.4066 43.8029 44.0863 43.6188 43.7432 43.4002C43.4 43.1816 43.0797 42.9975 43.0225 42.9975C42.9653 42.9975 42.8624 42.9169 42.7823 42.8249C42.7022 42.7328 42.5421 42.6523 42.4277 42.6523C42.3018 42.6523 42.2103 42.6063 42.2103 42.5487C42.2103 42.4912 42.0387 42.3646 41.8443 42.2611C41.6384 42.1575 41.3638 42.008 41.238 41.9274C40.117 41.2371 39.7852 41.0415 39.7052 41.0415C39.6594 41.0415 39.4764 40.9149 39.3048 40.7538L39.0074 40.4777V37.4056V34.345L39.3506 34.0229C39.5336 33.8503 39.8768 33.6202 40.117 33.5051C40.3572 33.39 40.7576 33.1599 41.0092 32.9988C41.2609 32.8378 41.6727 32.5961 41.9244 32.4696C42.176 32.343 42.4391 32.2049 42.4963 32.1474C42.748 31.9518 43.4801 31.4916 43.5373 31.4916C43.5716 31.4916 43.8576 31.319 44.1893 31.1119C44.521 30.9048 44.9672 30.6401 45.1845 30.5366C45.4018 30.4215 45.8251 30.1799 46.1225 29.9958C46.4085 29.8232 46.8775 29.5356 47.1635 29.386C47.4494 29.2249 47.8841 28.9603 48.1472 28.7992C48.3989 28.6381 48.6391 28.5001 48.6734 28.5001C48.6963 28.5001 49.0052 28.316 49.3483 28.0973C49.6915 27.8787 50.0118 27.6946 50.0461 27.6946C50.0804 27.6946 50.4007 27.5105 50.7439 27.2919C51.0871 27.0733 51.3959 26.8892 51.4188 26.8892C51.4531 26.8892 51.6934 26.7512 51.9565 26.5901C52.6314 26.1529 53.5808 25.6351 53.6838 25.6236C53.7295 25.6236 53.7638 30.9278 53.7638 37.4171ZM27.1565 28.9373C27.8771 29.3975 28.5177 29.8462 28.5749 29.9153C28.6435 29.9958 28.7579 31.319 28.8266 32.8723C28.9982 36.14 28.9066 46.7599 28.7122 46.9555C28.6321 47.036 28.5292 47.036 28.3919 46.9555C28.2889 46.8864 27.9458 46.6908 27.6255 46.5183C27.3166 46.3342 26.8934 46.0695 26.6875 45.92C26.493 45.7704 26.2642 45.6438 26.1956 45.6438C25.9782 45.6438 25.1775 45.08 25.0402 44.8154C24.9373 44.6198 24.9258 42.5948 24.9716 36.3816C25.0059 31.8943 25.0745 28.0973 25.1089 27.9593C25.2004 27.6716 25.0517 27.6026 27.1565 28.9373ZM17.1701 31.5031C17.662 31.7562 18.0967 32.0209 18.131 32.0669C18.1653 32.1244 18.5771 32.3545 19.0461 32.5846C19.5151 32.8032 19.9269 33.0449 19.9613 33.1139C20.007 33.1714 20.3044 33.3555 20.6247 33.5051C21.7229 34.0344 21.6199 33.321 21.6199 40.1555C21.6199 43.8144 21.6657 46.3227 21.7343 46.4952C21.803 46.7024 22.0432 46.8864 22.4664 47.082C22.8096 47.2431 23.1299 47.4272 23.1642 47.4848C23.21 47.5538 23.5417 47.7609 23.9077 47.945C24.2738 48.1291 24.6055 48.3362 24.6513 48.4052C24.6856 48.4628 25.0059 48.6468 25.3491 48.8079C25.6923 48.969 26.0011 49.1761 26.0354 49.2682C26.0812 49.3602 26.1956 49.4408 26.2985 49.4408C26.4015 49.4523 26.6875 49.6018 26.9391 49.7859C27.1908 49.97 27.6255 50.2232 27.9114 50.3612C28.1974 50.4993 28.5292 50.6949 28.655 50.81C28.7808 50.925 29.124 51.1321 29.4214 51.2702C29.7303 51.4198 30.0048 51.5808 30.0391 51.6499C30.0849 51.7074 30.2793 51.7304 30.4852 51.6959C30.8399 51.6269 31.0801 51.5118 32.4756 50.6834C32.7616 50.5108 33.2306 50.2577 33.5166 50.1196C33.8026 49.9815 34.2487 49.7169 34.5118 49.5443C34.7749 49.3602 35.0266 49.2106 35.0723 49.2106C35.1181 49.2106 35.3583 49.038 35.6214 48.8309C35.8845 48.6238 36.2963 48.3132 36.548 48.1406C36.7996 47.968 37.1657 47.7034 37.3601 47.5538C37.7605 47.2661 39.0989 45.8969 39.6137 45.2411C39.7967 45.0225 40.014 44.8384 40.0827 44.8384C40.2657 44.8384 40.9291 45.1606 41.0092 45.2986C41.0435 45.3447 41.4439 45.5863 41.89 45.8164C42.3476 46.058 42.828 46.3342 42.9539 46.4377C43.0797 46.5413 43.4229 46.7484 43.7203 46.898C44.0177 47.036 44.2922 47.1971 44.3266 47.2546C44.3609 47.3007 44.7613 47.5423 45.2074 47.7724C45.6649 48.0025 46.1454 48.2787 46.2712 48.3937C46.397 48.5088 46.7288 48.7159 47.0148 48.854C47.3007 48.992 47.6897 49.1991 47.8727 49.3257C48.0672 49.4523 48.4446 49.6594 48.7306 49.7974C49.0166 49.9355 49.3483 50.1426 49.4742 50.2462C49.6 50.3612 50.0347 50.6144 50.4465 50.833C50.8583 51.0401 51.2815 51.2817 51.3845 51.3737C51.4989 51.4658 51.8421 51.6844 52.1509 51.8455C52.4712 52.0066 52.986 52.2942 53.3177 52.4898L53.9011 52.835L53.8439 56.724C53.7753 60.659 53.9583 64.4099 54.2214 64.6745C54.29 64.7436 54.3358 64.9507 54.3358 65.1578C54.3358 65.4684 54.4273 65.595 54.9993 65.9977C56.2118 66.8837 56.452 67.0332 56.7037 67.1483C56.8295 67.2058 56.9782 67.3209 57.024 67.3784C57.0583 67.4475 57.3672 67.6315 57.7103 67.7926C58.0421 67.9537 58.3738 68.1608 58.4539 68.2529C58.5339 68.3449 58.9686 68.598 59.4262 68.8167C59.8838 69.0353 60.2956 69.2654 60.3299 69.3344C60.3756 69.4035 60.7875 69.6451 61.245 69.8637C61.714 70.0823 62.1487 70.3469 62.2288 70.439C62.3089 70.531 62.469 70.6116 62.5834 70.6116C62.8579 70.6116 63.7159 70.2089 64.4594 69.7371C64.7797 69.5415 65.2945 69.2424 65.6033 69.0698C65.9236 68.8972 66.3354 68.6671 66.5184 68.5405C66.7129 68.414 66.9646 68.2644 67.0904 68.2068C67.4793 68.0227 69.2524 66.7801 69.8244 66.2969C70.7395 65.526 70.9797 65.2843 71.586 64.5595C72.1922 63.8116 72.5354 63.6275 72.7642 63.8921C72.8443 63.9842 73.176 64.1913 73.5077 64.3409C73.8395 64.4904 74.1369 64.6745 74.1827 64.7321C74.217 64.8011 74.4801 64.9622 74.7546 65.0888C75.0291 65.2153 75.2808 65.3649 75.3266 65.4339C75.3609 65.4915 75.6583 65.6756 75.99 65.8366C76.3218 66.0092 76.6878 66.2393 76.8136 66.3544C76.9395 66.4695 77.1454 66.5845 77.2712 66.6305C77.397 66.6651 77.8661 66.9297 78.3007 67.2173C78.7469 67.505 79.1472 67.7351 79.2044 67.7351C79.2502 67.7351 79.5247 67.8962 79.8107 68.0803C80.0967 68.2759 80.5771 68.5635 80.8745 68.7131C81.1834 68.8742 81.4579 69.0468 81.5037 69.1043C81.538 69.1733 81.9498 69.4035 82.4188 69.6336C82.8878 69.8637 83.2996 70.1053 83.3454 70.1628C83.3797 70.2204 83.6771 70.4045 83.9974 70.5655C84.6723 70.8992 84.8439 71.0028 85.5303 71.4515C85.8048 71.6241 86.0679 71.7622 86.1251 71.7622C86.1823 71.7622 86.3768 71.8772 86.5598 72.0268C86.7314 72.1764 87.0745 72.3835 87.3148 72.4985C88.0583 72.8437 88.0011 73.0853 87.0517 73.5686C86.8343 73.6836 86.4111 73.9368 86.1251 74.1439C85.8277 74.351 85.5531 74.5236 85.5188 74.5236C85.4502 74.5236 83.2539 75.8698 82.659 76.284C82.476 76.4105 82.007 76.6752 81.6295 76.8823C81.2406 77.0779 80.7258 77.3655 80.4742 77.5151C80.2225 77.6647 79.7077 77.9523 79.3303 78.1479C78.9528 78.355 78.2664 78.7462 77.8089 79.0109L76.9852 79.5056L76.276 79.1259C75.8871 78.9188 75.3952 78.6197 75.1779 78.4816C74.9605 78.332 74.5144 78.0789 74.1827 77.9178C73.8395 77.7567 73.5306 77.5726 73.4963 77.5151C73.462 77.4576 73.1417 77.262 72.81 77.1009C72.4668 76.9398 72.1579 76.7672 72.1236 76.7097C72.0893 76.6637 71.6889 76.422 71.2428 76.1919C70.7852 75.9503 70.3048 75.6742 70.179 75.5591C70.0531 75.4555 69.7672 75.283 69.5384 75.1794C69.3096 75.0759 69.0579 74.9148 68.9779 74.8112C68.8978 74.7192 68.7491 74.6386 68.6347 74.6386C68.5203 74.6386 68.3716 74.5696 68.303 74.4891C68.2343 74.397 67.9598 74.2359 67.6967 74.1209C67.4221 74.0058 67.1018 73.8217 66.976 73.7067C66.8502 73.6031 66.5299 73.396 66.2553 73.2579C65.9922 73.1199 65.7406 72.9588 65.7063 72.9012C65.672 72.8437 65.5576 72.7977 65.4432 72.7977C65.3288 72.7977 65.1686 72.7171 65.0886 72.6251C65.0085 72.5215 64.7568 72.3605 64.528 72.2569C64.2993 72.1534 63.9675 71.9463 63.7959 71.7967C63.6129 71.6471 63.4184 71.532 63.3612 71.532C63.3041 71.532 63.041 71.394 62.7664 71.2214C62.0801 70.7727 61.9085 70.6691 61.2336 70.3354C60.9133 70.1744 60.6044 69.9788 60.5701 69.9097C60.5244 69.8522 60.2269 69.6681 59.9066 69.507C59.1402 69.1273 58.8428 68.9662 58.6026 68.7476C58.4882 68.6556 58.1793 68.483 57.9048 68.3679C57.6417 68.2529 57.3672 68.0918 57.2985 68.0112C57.2299 67.9192 56.7952 67.6776 56.3376 67.459C55.8915 67.2288 55.4568 66.9757 55.3882 66.8952C55.3081 66.8031 55.0336 66.642 54.7705 66.527C54.4959 66.4119 54.1756 66.2163 54.0498 66.1128C53.924 65.9977 53.4435 65.7216 52.986 65.4915C52.5399 65.2613 52.128 65.0197 52.0937 64.9622C52.0594 64.9047 51.7506 64.7206 51.4188 64.5595C51.0756 64.3984 50.7668 64.2143 50.721 64.1568C50.6867 64.0992 50.252 63.8461 49.7601 63.593C49.2683 63.3399 48.8336 63.0867 48.7878 63.0177C48.7535 62.9602 48.4904 62.7991 48.2159 62.6725C47.9413 62.546 47.6782 62.3964 47.6439 62.3273C47.6096 62.2698 47.152 62.0052 46.6373 61.7405C46.1225 61.4874 45.5391 61.1652 45.3332 61.0272C44.7613 60.636 44.052 60.2103 43.297 59.796C42.9196 59.5889 42.5306 59.3588 42.4391 59.2783C42.3476 59.1977 42.0273 59.0252 41.7299 58.8871C41.4325 58.7605 41.1694 58.5994 41.1236 58.5419C41.0893 58.4729 40.9177 58.3578 40.7461 58.2658C39.7738 57.771 39.2247 57.4603 39.179 57.3798C39.1446 57.3223 38.8358 57.1497 38.4926 56.9886C38.1609 56.8275 37.8406 56.6434 37.8063 56.5744C37.772 56.5169 37.3601 56.2752 36.9026 56.0566C36.4336 55.838 35.9989 55.5734 35.9188 55.4813C35.8387 55.3893 35.4041 55.1247 34.9351 54.906C34.4775 54.6874 34.0657 54.4458 34.0314 54.3883C33.997 54.3192 33.6768 54.1352 33.345 53.9741C33.0018 53.813 32.693 53.6404 32.6587 53.5829C32.6244 53.5253 32.4528 53.4103 32.2812 53.3182C31.286 52.812 30.7598 52.5128 30.7026 52.4208C30.6683 52.3632 30.4052 52.2022 30.1077 52.0756C29.8103 51.9375 29.49 51.7649 29.3985 51.6729C29.2956 51.5924 28.8609 51.3277 28.4262 51.0861C27.4996 50.5798 27.0192 50.2922 26.4587 49.924C26.2528 49.7859 26.0011 49.6709 25.921 49.6709C25.8295 49.6709 25.7037 49.5903 25.6236 49.4983C25.5435 49.3947 25.2004 49.1876 24.8686 49.038C24.5369 48.8885 24.2395 48.7159 24.2052 48.6584C24.1708 48.5893 23.8162 48.3822 23.4273 48.1751C23.0269 47.968 22.4435 47.6343 22.1118 47.4157C21.7915 47.1971 21.4827 47.0245 21.4369 47.0245C21.3911 47.0245 21.2653 46.9555 21.1738 46.8634C21.0708 46.7714 20.6018 46.5068 20.1328 46.2536C19.6638 46.012 19.1834 45.7244 19.0804 45.6093C18.9661 45.5057 18.8173 45.4137 18.7487 45.4137C18.6801 45.4137 18.3941 45.2526 18.1081 45.0685C17.8336 44.8729 17.559 44.7233 17.5018 44.7233C17.4446 44.7233 17.1701 44.5623 16.8956 44.3782C16.6096 44.1826 16.3351 44.033 16.2664 44.033C16.2092 44.033 16.0834 43.9524 16.0033 43.8489C15.9232 43.7453 15.5915 43.5382 15.2712 43.4002C14.9624 43.2506 14.5048 42.9975 14.2646 42.8364C14.0244 42.6638 13.624 42.4337 13.3838 42.3071C13.1435 42.1805 12.7203 41.9274 12.4458 41.7433C12.1712 41.5592 11.7137 41.3061 11.4162 41.168C11.1188 41.0415 10.8443 40.8689 10.81 40.7998C10.7642 40.7423 10.4668 40.5582 10.1465 40.3971C9.38007 40.0174 9.08266 39.8564 8.84243 39.6377C8.72804 39.5457 8.41919 39.3731 8.14465 39.258C7.88155 39.143 7.60701 38.9819 7.53838 38.9014C7.46974 38.8208 7.03506 38.5562 6.56605 38.3261C5.58229 37.8198 5.10184 37.3941 5.37638 37.233C5.4679 37.1755 6.01697 36.8303 6.57749 36.4736C7.14945 36.1169 7.83579 35.7027 8.12177 35.5532C8.40775 35.3921 8.71661 35.208 8.80812 35.1274C8.89963 35.0469 9.28856 34.8053 9.66605 34.5752C10.2838 34.207 10.6041 34.0229 11.4506 33.5511C11.5993 33.4591 11.9539 33.252 12.2399 33.0794C13.2579 32.4696 15.9576 31.0428 16.1063 31.0313C16.1863 31.0313 16.6668 31.2384 17.1701 31.5031ZM4.08376 40.6733C4.38118 40.8574 4.85018 41.099 5.12472 41.214C5.38782 41.3291 5.60517 41.4787 5.60517 41.5247C5.60517 41.5822 5.8797 41.7433 6.21144 41.9044C6.55461 42.054 6.89779 42.2611 6.97786 42.3646C7.05793 42.4567 7.18376 42.5372 7.27528 42.5372C7.35535 42.5372 7.60701 42.6523 7.82435 42.7904C8.72804 43.3772 9.2428 43.6878 9.88339 44.01C10.2494 44.2056 10.6269 44.4357 10.7413 44.5277C10.8443 44.6198 11.1646 44.8039 11.4506 44.9304C11.7365 45.0685 12.0454 45.2526 12.1255 45.3562C12.2055 45.4482 12.3314 45.5287 12.4229 45.5287C12.503 45.5287 12.8004 45.6783 13.0749 45.8739C13.3609 46.058 13.6354 46.2191 13.7041 46.2191C13.7613 46.2191 13.8871 46.2996 13.9672 46.4032C14.0472 46.5068 14.379 46.7139 14.6993 46.8519C15.0081 47.0015 15.4657 47.2546 15.7059 47.4157C15.9461 47.5883 16.3465 47.8184 16.5867 47.945C16.8269 48.0716 17.2159 48.3017 17.4446 48.4628C17.6849 48.6123 18.1424 48.877 18.4742 49.038C18.8173 49.1991 19.1262 49.3832 19.1605 49.4523C19.2063 49.5098 19.5037 49.6939 19.824 49.8435C20.1557 49.993 20.6133 50.2462 20.8535 50.4072C21.0937 50.5798 21.4941 50.81 21.7343 50.9365C21.9745 51.0631 22.3635 51.2932 22.5923 51.4428C22.8096 51.6039 23.2443 51.8455 23.5417 51.9836C23.8391 52.1216 24.1823 52.3287 24.3081 52.4438C24.4339 52.5588 24.7657 52.766 25.0517 52.8925C25.7494 53.2262 26.0469 53.3988 26.2756 53.6059C26.39 53.7094 26.5845 53.813 26.7103 53.859C26.8362 53.8935 27.2251 54.1121 27.5683 54.3308C27.9114 54.5609 28.4262 54.8485 28.7122 54.9866C28.9982 55.1131 29.3299 55.3203 29.4557 55.4353C29.5815 55.5504 29.9133 55.7575 30.1993 55.884C30.8742 56.2062 31.183 56.3903 31.4232 56.5974C31.5376 56.6895 31.8236 56.862 32.0638 56.9656C32.3041 57.0807 32.7159 57.3108 32.979 57.4834C33.2421 57.6675 33.6653 57.8976 33.917 58.0126C34.1686 58.1277 34.4775 58.3118 34.6033 58.4153C34.7292 58.5304 35.2096 58.8065 35.6672 59.0482C36.1133 59.2783 36.5251 59.5199 36.5594 59.5774C36.5937 59.635 36.8911 59.8076 37.2343 59.9571C37.5661 60.1182 37.8749 60.2908 37.9092 60.3483C37.9435 60.4174 38.2982 60.6245 38.6871 60.8316C39.0875 61.0387 39.6708 61.3724 40.0026 61.591C40.3229 61.8096 40.6317 61.9822 40.6775 61.9822C40.7232 61.9822 41.0207 62.1548 41.341 62.3619C41.6613 62.5805 42.1646 62.8566 42.4506 62.9832C42.7365 63.1212 43.0339 63.3053 43.114 63.4089C43.2055 63.5124 43.3199 63.593 43.3771 63.593C43.4458 63.593 43.7203 63.7426 44.0063 63.9382C44.2808 64.1223 44.5553 64.2833 44.6125 64.2833C44.6697 64.2833 44.9443 64.4329 45.2188 64.6285C45.5048 64.8126 45.7793 64.9737 45.848 64.9737C45.9052 64.9737 46.0196 65.0542 46.0996 65.1578C46.1911 65.2498 46.6716 65.5375 47.1749 65.7906C47.6897 66.0437 48.2616 66.3659 48.4561 66.504C48.9251 66.8376 49.4055 67.1138 50.3893 67.6546C50.824 67.9077 51.2701 68.1723 51.3616 68.2529C51.4531 68.3334 51.7734 68.506 52.0709 68.6441C52.3683 68.7706 52.6314 68.9317 52.6657 68.9892C52.7 69.0468 53.1118 69.2884 53.5579 69.5185C54.0155 69.7601 54.4959 70.0363 54.6218 70.1398C54.7476 70.2434 55.0565 70.4275 55.3081 70.554C55.5598 70.6806 55.9716 70.9222 56.2232 71.0833C56.4749 71.2559 56.921 71.4975 57.207 71.6241C57.493 71.7622 57.8018 71.9463 57.8819 72.0498C57.962 72.1534 58.2937 72.3605 58.614 72.5215C58.9343 72.6711 59.3576 72.9012 59.5406 73.0278C59.7351 73.1544 60.1583 73.3845 60.4786 73.5456C60.8103 73.7182 61.1077 73.9023 61.1535 73.9598C61.1878 74.0173 61.6225 74.2704 62.1144 74.5236C62.6063 74.7767 63.041 75.0298 63.0867 75.0989C63.121 75.1564 63.3956 75.329 63.693 75.4555C63.9904 75.5936 64.3107 75.7777 64.4137 75.8698C64.528 75.9618 64.9055 76.1919 65.2716 76.3875C65.9236 76.7212 66.4727 77.0434 67.3535 77.6187C67.5823 77.7682 68.1771 78.1019 68.6576 78.3435C69.1494 78.5967 69.5727 78.8498 69.607 78.9073C69.6528 78.9648 69.9044 79.1144 70.179 79.241C70.4535 79.3675 70.7052 79.5171 70.7509 79.5747C70.7852 79.6437 70.9568 79.7587 71.1284 79.8508C72.1351 80.3686 72.6498 80.6562 72.707 80.7598C72.7413 80.8173 73.0387 80.9899 73.359 81.151C73.6908 81.312 74.114 81.5307 74.297 81.6572C74.4915 81.7723 74.9033 82.0139 75.2122 82.175C75.5325 82.3476 75.8871 82.5777 76.0129 82.6927C76.1387 82.7963 76.4362 82.9689 76.6649 83.0494C77.0539 83.1875 77.1454 83.176 77.5229 82.9574C78.072 82.6697 79.9823 81.5537 80.3941 81.289C80.5657 81.174 80.9089 80.9899 81.1605 80.8633C81.4122 80.7367 81.8469 80.4721 82.1328 80.2765C82.4188 80.0924 82.6819 79.9313 82.7391 79.9313C82.7849 79.9313 83.1509 79.7357 83.5399 79.4826C83.9288 79.241 84.5351 78.8843 84.8782 78.7002C85.2214 78.5046 85.6904 78.24 85.9077 78.1134C86.1251 77.9753 86.514 77.7682 86.7657 77.6302C87.0173 77.5036 87.4863 77.2505 87.7952 77.0549C88.8018 76.4566 89.6712 76.0193 89.8657 76.0193C90.0144 76.0193 90.0373 76.0884 89.9801 76.3875C89.9458 76.5946 89.8542 77.377 89.7856 78.1479C89.6255 80.1154 89.5568 80.288 88.8819 80.7483C86.4225 82.4396 85.1871 83.2565 84.6494 83.5327C84.3063 83.7168 83.9745 83.9009 83.9059 83.9584C83.8487 84.0044 83.5856 84.1655 83.3339 84.3151C83.0823 84.4531 82.6705 84.6948 82.4188 84.8328C82.1672 84.9824 81.5037 85.3391 80.9317 85.6383C80.3712 85.9259 79.8221 86.2366 79.7306 86.3171C79.6391 86.3976 79.2273 86.6508 78.8155 86.8694C78.4037 87.088 77.8203 87.3987 77.5114 87.5712C76.9738 87.8704 76.9395 87.8704 76.562 87.6978C76.3446 87.5943 75.9557 87.3641 75.6926 87.18C75.4295 87.0075 74.972 86.7543 74.6745 86.6163C74.3771 86.4897 74.1026 86.3171 74.0683 86.2596C74.0225 86.1905 73.748 86.0179 73.4391 85.8569C73.1303 85.7073 72.6841 85.4427 72.4439 85.2701C72.2037 85.109 71.7461 84.8559 71.4373 84.7063C71.117 84.5682 70.7852 84.3611 70.7052 84.2575C70.6251 84.154 70.4993 84.0735 70.4421 84.0735C70.3734 84.0735 70.0989 83.9124 69.8129 83.7283C69.5384 83.5327 69.2638 83.3831 69.2066 83.3831C69.1494 83.3831 68.8749 83.222 68.6004 83.0379C68.3144 82.8423 68.0284 82.6927 67.9712 82.6927C67.9026 82.6927 67.7081 82.5777 67.5251 82.4281C67.3535 82.2785 67.0218 82.0714 66.8044 81.9679C66.0838 81.6112 65.2258 81.1049 64.5852 80.6562C64.3908 80.5181 63.979 80.2765 63.6587 80.1269C63.3498 79.9659 62.8923 79.7012 62.6635 79.5516C62.4347 79.3906 62.0458 79.1719 61.8055 79.0569C61.5653 78.9533 61.2679 78.7692 61.1421 78.6657C61.0162 78.5506 60.5358 78.2745 60.0782 78.0329C59.6321 77.8027 59.2317 77.5611 59.1974 77.5151C59.1631 77.4576 58.8542 77.285 58.5111 77.1239C58.1793 76.9628 57.859 76.7672 57.8247 76.7097C57.779 76.6407 57.3786 76.4105 56.9325 76.1804C56.4749 75.9618 56.0059 75.6742 55.8801 75.5591C55.7542 75.444 55.5483 75.329 55.4225 75.283C55.2967 75.2484 54.9077 75.0298 54.5646 74.8112C54.2214 74.5811 53.6723 74.2704 53.352 74.1209C53.0317 73.9713 52.7114 73.7757 52.6428 73.6836C52.5627 73.5916 52.2882 73.4305 52.0251 73.3155C51.7506 73.2004 51.4417 73.0278 51.3273 72.9358C51.0871 72.7171 50.7897 72.5561 50.0232 72.1764C49.703 72.0153 49.4055 71.8312 49.3712 71.7737C49.3255 71.7046 49.0967 71.5666 48.8679 71.463C48.6391 71.3479 48.3646 71.1984 48.2731 71.1178C48.1701 71.0258 47.7354 70.7727 47.3007 70.5425C46.8546 70.3124 46.2369 69.9442 45.9052 69.7371C45.5849 69.5185 45.276 69.3459 45.2303 69.3459C45.1845 69.3459 45.0587 69.2769 44.9672 69.1848C44.8642 69.1043 44.4295 68.8397 43.9834 68.598C43.5487 68.3679 43.1026 68.1033 43.0111 68.0227C42.9196 67.9422 42.5878 67.7351 42.2675 67.574C41.9587 67.4014 41.5469 67.1713 41.3524 67.0447C41.1694 66.9182 40.7461 66.6881 40.4258 66.5385C40.1055 66.3774 39.7852 66.1703 39.7052 66.0898C39.6365 65.9977 39.3277 65.8021 39.0303 65.664C38.3553 65.3534 38.0351 65.1693 37.7834 64.9507C37.669 64.8586 37.3601 64.686 37.0856 64.571C36.8225 64.4559 36.548 64.2948 36.4679 64.2028C36.3993 64.1107 36.079 63.9151 35.7587 63.7656C35.4384 63.616 34.8893 63.3053 34.5461 63.0752C34.203 62.8566 33.814 62.638 33.6882 62.6035C33.5624 62.5575 33.3679 62.4539 33.2535 62.3504C33.0247 62.1432 32.7273 61.9707 32.0295 61.637C31.7435 61.5104 31.4118 61.3033 31.286 61.1883C31.1601 61.0732 30.8284 60.8661 30.5424 60.728C30.2565 60.59 29.879 60.3713 29.6845 60.2563C29.5015 60.1297 29.0439 59.8766 28.6893 59.681C28.3347 59.4969 28.0144 59.2898 27.9686 59.2323C27.9343 59.1632 27.5225 58.9331 27.0535 58.703C26.5845 58.4729 26.1727 58.2312 26.1384 58.1852C26.1041 58.1277 25.8295 57.9666 25.5321 57.8285C25.2347 57.679 24.8915 57.4719 24.7657 57.3683C24.6399 57.2647 24.1823 56.9886 23.7362 56.7585C23.3015 56.5284 22.8668 56.2752 22.7638 56.1947C22.6723 56.1142 22.4435 55.9761 22.2491 55.884C22.0661 55.792 21.8258 55.6539 21.7343 55.5734C21.6314 55.4928 21.1967 55.2397 20.762 55.0096C20.3159 54.7795 19.8583 54.5033 19.7325 54.3998C19.6066 54.2962 19.2635 54.0891 18.9661 53.9396C18.6686 53.8015 18.3941 53.6404 18.3598 53.5714C18.314 53.5138 18.1996 53.4678 18.0852 53.4678C17.9708 53.4678 17.8107 53.3873 17.7306 53.2952C17.6506 53.1917 17.3989 53.0306 17.1701 52.927C16.9413 52.8235 16.6554 52.6509 16.5295 52.5473C16.4037 52.4323 15.9232 52.1561 15.4657 51.9145C15.0196 51.6844 14.6192 51.4428 14.5849 51.3968C14.5506 51.3392 14.2875 51.1896 13.9786 51.0401C13.6812 50.902 13.338 50.6949 13.2122 50.5798C13.0863 50.4648 12.7546 50.2577 12.4686 50.1311C11.7708 49.7974 11.4734 49.6248 11.2446 49.4177C11.1303 49.3142 10.9358 49.2106 10.81 49.1646C10.6841 49.1301 10.2952 48.9115 9.95203 48.6929C9.60886 48.4627 9.0941 48.1751 8.80812 48.037C8.52214 47.9105 8.19041 47.7034 8.06458 47.5883C7.93874 47.4732 7.60701 47.2661 7.32103 47.1396C6.63469 46.8174 6.33727 46.6333 6.09705 46.4262C5.98266 46.3342 5.71956 46.1846 5.51365 46.104C5.30775 46.0235 4.99889 45.8509 4.82731 45.7128C4.66716 45.5863 4.26679 45.3447 3.94649 45.1836L3.37454 44.8959L3.34022 42.6178C3.32878 41.2025 3.35166 40.3511 3.4203 40.3511C3.48893 40.3511 3.78635 40.5007 4.08376 40.6733ZM25.7609 61.4874C26.0125 61.6715 26.31 61.8556 26.4129 61.9246C26.8018 62.1663 27.7399 62.8336 27.797 62.9026C27.8314 62.9487 28.0258 63.0752 28.2203 63.1903C28.4834 63.3399 28.6092 63.5239 28.655 63.7656C28.6779 63.9497 28.7579 67.3439 28.8266 71.3019C28.9524 78.8728 28.9524 90.4592 28.838 105.129L28.7694 113.931L28.4948 113.966C28.3461 113.989 28.1974 113.966 28.1517 113.908C28.1173 113.862 27.8771 113.713 27.6255 113.586C27.3738 113.459 26.9162 113.206 26.5959 113.011C26.2871 112.815 25.8295 112.551 25.5893 112.435C25.3491 112.309 25.0974 112.102 25.0288 111.987C24.8915 111.722 24.9716 61.7175 25.1089 61.3723C25.2118 61.1192 25.2004 61.1192 25.7609 61.4874ZM33.2192 66.0783C33.7225 66.4349 34.3288 66.8376 34.5461 66.9987C34.7635 67.1483 35.1066 67.3784 35.3011 67.528L35.6557 67.7811L35.7472 71.0718C35.8044 72.8782 35.8502 81.6342 35.8616 90.5398C35.8616 99.4453 35.8959 106.752 35.9303 106.786C35.9875 106.855 38.6985 105.509 39.4649 105.037C39.6823 104.899 40.5059 104.45 41.2952 104.036C42.0845 103.622 42.9081 103.173 43.1255 103.047C43.3428 102.909 43.9148 102.586 44.3838 102.345C44.8528 102.092 45.379 101.781 45.5506 101.666C45.7107 101.539 45.8823 101.447 45.9166 101.447C45.9509 101.447 46.3513 101.217 46.8089 100.953C47.2664 100.676 47.9756 100.262 48.3875 100.021C48.7993 99.7905 49.3598 99.4683 49.6458 99.2957C49.9317 99.1347 50.3664 98.8815 50.6181 98.7435C50.8697 98.6054 51.6934 98.1106 52.4483 97.6504C53.2033 97.1902 53.9812 96.7299 54.1642 96.6264C54.3587 96.5228 55.148 96.0511 55.9373 95.5793C56.7266 95.1076 57.5273 94.6474 57.7103 94.5438C57.9048 94.4403 58.4882 94.0836 59.0258 93.7499C59.5635 93.4162 60.1812 93.0365 60.3985 92.9215C60.6159 92.7949 60.959 92.5993 61.1421 92.4843C61.3365 92.3692 61.7369 92.1391 62.0458 91.9665C62.3546 91.7939 62.7893 91.5293 63.0181 91.3682C63.2354 91.2186 63.4871 91.092 63.5557 91.092C63.6244 91.092 63.8074 90.9655 63.9675 90.8274L64.2535 90.5513L64.345 87.3756C64.4136 84.7063 64.4594 84.1885 64.5967 84.1885C64.917 84.1885 68.0513 86.7888 68.1199 87.111C68.2458 87.7438 68.5203 92.3692 68.4517 92.6683C68.383 92.933 67.8911 93.3012 66.9188 93.7959C66.5756 93.9685 66.1295 94.2331 65.9351 94.3827C65.7406 94.5323 65.5461 94.6589 65.5004 94.6589C65.466 94.6589 65.2144 94.7969 64.9398 94.9695C64.6767 95.1421 64.1277 95.4528 63.7159 95.6714C63.3041 95.8785 62.8923 96.1316 62.8007 96.2122C62.7092 96.2927 62.4232 96.4653 62.1716 96.6034C61.9199 96.7414 61.5653 96.9485 61.3708 97.0751C61.1878 97.1902 60.8447 97.3858 60.6273 97.5008C60.41 97.6044 59.5863 98.0876 58.797 98.5594C55.6742 100.412 55.5483 100.492 54.3815 101.148C53.9469 101.39 53.455 101.689 53.2834 101.804C53.1118 101.931 52.7458 102.149 52.4827 102.287C51.762 102.678 51.4417 102.874 51.293 103.012C51.2129 103.081 50.9841 103.208 50.7668 103.288C50.5609 103.38 50.2406 103.553 50.0461 103.679C49.6915 103.933 48.01 104.911 47.4151 105.221C47.2321 105.313 46.9461 105.486 46.786 105.589C46.4428 105.831 44.5782 106.924 44.0978 107.177C43.9148 107.269 43.5487 107.488 43.297 107.661C43.0454 107.822 42.6336 108.063 42.3819 108.178C42.1303 108.293 41.7871 108.477 41.6269 108.592C41.341 108.8 39.7852 109.72 38.7786 110.284C38.4926 110.433 38.2181 110.606 38.1494 110.652C38.0923 110.698 37.7834 110.882 37.4631 111.066C37.1542 111.239 36.7424 111.469 36.548 111.584C36.3649 111.699 35.976 111.929 35.69 112.09C35.4041 112.251 35.0266 112.481 34.8321 112.597C34.6491 112.712 34.2487 112.93 33.9513 113.103C33.6653 113.264 33.2077 113.529 32.9446 113.701C32.6815 113.862 32.3841 113.989 32.2812 113.966C32.0982 113.931 32.0867 112.274 32.0524 89.9415C32.041 76.7442 32.0524 65.8366 32.0867 65.6871C32.121 65.549 32.1782 65.4339 32.224 65.4339C32.2583 65.4339 32.7044 65.7216 33.2192 66.0783ZM39.7852 69.9212C39.9911 70.0478 40.2314 70.1513 40.3114 70.1513C40.403 70.1513 40.4945 70.1859 40.5173 70.2319C40.5402 70.2894 40.7804 70.439 41.0664 70.5886C41.3524 70.7266 41.7871 70.9683 42.0387 71.1293C42.2904 71.2789 42.7022 71.5205 42.9539 71.6471C43.2055 71.7737 43.6173 72.0153 43.869 72.1649C44.1207 72.3259 44.4295 72.51 44.5553 72.5676C44.6812 72.6366 44.99 72.8092 45.2417 72.9703C45.4934 73.1314 45.8022 73.3155 45.928 73.373C46.0539 73.442 46.2598 73.5571 46.3856 73.6261C47.0834 74.0748 47.8041 74.5006 48.1587 74.6616C48.376 74.7652 48.6734 74.9608 48.8107 75.0874C48.948 75.2254 49.1196 75.329 49.1882 75.329C49.2568 75.329 49.6686 75.5476 50.0804 75.8237C50.5037 76.0884 51.0528 76.4105 51.3044 76.5371C51.5561 76.6637 51.9107 76.8708 52.1052 76.9973C52.2882 77.1124 52.7458 77.377 53.1347 77.5726L53.821 77.9293L53.8553 81.3235L53.8782 84.7178L53.1804 85.201C52.8029 85.4657 52.414 85.6843 52.3339 85.6843C52.2539 85.6843 52.1624 85.7188 52.1395 85.7648C52.0937 85.8914 51.2815 86.4091 50.7439 86.6508C50.4923 86.7658 49.9432 87.088 49.5199 87.3641C49.0967 87.6403 48.662 87.8704 48.5705 87.8704C48.4675 87.8704 48.3875 87.9164 48.3875 87.9624C48.3875 88.02 48.2159 88.1465 48.0214 88.2501C47.8155 88.3536 47.541 88.5147 47.4151 88.5838C46.5915 89.113 45.9738 89.4697 45.562 89.6538C45.2875 89.7689 45.0701 89.9069 45.0701 89.9645C45.0701 90.0105 45.0244 90.0565 44.9557 90.0565C44.8985 90.0565 44.5668 90.2406 44.2236 90.4592C43.8804 90.6778 43.5144 90.8619 43.4114 90.8619C43.3199 90.8619 43.2399 90.9079 43.2399 90.954C43.2399 91.0115 43.0683 91.1381 42.8738 91.2416C42.6679 91.3452 42.3934 91.5063 42.2675 91.5753C41.6498 91.978 40.8491 92.4497 40.4487 92.6453C40.2085 92.7719 39.8539 92.956 39.648 93.0711C39.3162 93.2436 39.2934 93.2436 39.2133 93.0711C39.1218 92.8294 39.0989 70.1283 39.1904 69.8752C39.2819 69.6451 39.3277 69.6451 39.7852 69.9212ZM58.6026 80.7713C59.1517 81.22 59.7694 81.7147 59.9753 81.8528C60.1812 82.0024 60.5587 82.3361 60.8332 82.6007L61.3136 83.0839L61.2565 84.0619C61.2336 84.6027 61.1764 85.6843 61.1421 86.4667C61.1077 87.2491 61.0277 87.9739 60.9819 88.0775C60.9247 88.1811 60.7875 88.4687 60.6845 88.7103C60.49 89.1591 59.6435 89.8839 59.1745 90.0105C59.0258 90.045 58.9114 90.1255 58.9114 90.1831C58.9114 90.2406 58.8542 90.2866 58.7742 90.2866C58.7055 90.2866 58.4767 90.4132 58.2708 90.5743C58.0649 90.7354 57.8705 90.8619 57.8247 90.8619C57.7904 90.8619 57.493 91.0345 57.1613 91.2416C56.8295 91.4487 56.4177 91.6903 56.2232 91.7824C56.0402 91.8744 55.7199 92.07 55.5255 92.2081C55.331 92.3577 55.1365 92.4727 55.0908 92.4727C55.0565 92.4727 54.8048 92.6108 54.5531 92.7719C54.1413 93.025 53.5808 93.3472 52.7915 93.7844C52.6657 93.8535 52.4827 93.9685 52.3911 94.0375C52.2996 94.1066 51.8649 94.3597 51.4188 94.6013C50.9841 94.843 50.5723 95.0731 50.5037 95.1191C50.4465 95.1651 50.2063 95.3147 49.9889 95.4298C48.7535 96.1201 48.479 96.2812 48.0557 96.5458C47.8041 96.7069 47.5638 96.845 47.5295 96.845C47.4952 96.845 47.1978 97.0176 46.866 97.2247C46.5343 97.4318 46.0882 97.6964 45.8708 97.8C45.6535 97.915 45.3675 98.0646 45.2531 98.1451C44.3723 98.6974 43.8118 99.0311 43.766 99.0311C43.7317 99.0311 43.4229 99.2152 43.0797 99.4338C42.7365 99.6524 42.4162 99.8365 42.3819 99.8365C42.3476 99.8365 42.0502 100.009 41.7184 100.216C41.3867 100.423 40.9749 100.665 40.7804 100.757C40.5974 100.849 40.2886 101.033 40.0941 101.171C39.6022 101.516 39.3277 101.597 39.2133 101.424C39.1103 101.252 39.0875 97.4893 39.1904 97.0981C39.2362 96.96 39.3277 96.845 39.3963 96.845C39.4649 96.845 39.728 96.7069 39.9797 96.5343C40.2314 96.3617 40.7461 96.0626 41.1236 95.867C41.5011 95.6599 42.1074 95.3147 42.462 95.0846C42.8166 94.843 43.1941 94.6589 43.2856 94.6589C43.3771 94.6589 43.4686 94.6243 43.4915 94.5668C43.5373 94.4633 44.3151 93.9685 44.8985 93.6809C45.1502 93.5543 45.4133 93.3932 45.4934 93.3127C45.5734 93.2436 45.8823 93.0595 46.1911 92.91C46.4886 92.7604 46.7517 92.6223 46.786 92.5878C46.8775 92.4958 47.3579 92.2196 47.9871 91.8975C48.3074 91.7364 48.7993 91.4372 49.0967 91.2301C49.3941 91.0345 49.6572 90.8619 49.7029 90.8619C49.7373 90.8619 50.0347 90.6893 50.3664 90.4822C50.6982 90.2751 51.0413 90.068 51.1328 90.022C51.2244 89.976 51.4074 89.8724 51.5218 89.8034C52.2996 89.2971 52.9631 88.9059 53.0546 88.9059C53.1118 88.9059 53.2491 88.8024 53.352 88.6873C53.4664 88.5607 53.6723 88.4342 53.8325 88.3997C53.9812 88.3536 54.107 88.2731 54.107 88.2156C54.107 88.1465 54.1985 88.1005 54.3015 88.1005C54.4044 88.1005 54.576 88.0315 54.6675 87.9394C54.7705 87.8589 55.0793 87.6633 55.3653 87.5137C55.6513 87.3641 56.1432 87.042 56.4635 86.8119C57.1841 86.2941 57.1613 86.4091 57.2642 82.6582C57.3214 80.7828 57.3786 79.9313 57.4701 79.9313C57.5387 79.9313 58.0535 80.311 58.6026 80.7713Z" fill="black"/>
</svg>
