<svg xmlns="http://www.w3.org/2000/svg" width="109" height="39" viewBox="0 0 109 39" fill="none"><path d="M29.0317 37.0743L37.8772 2.9212C38.2558 1.45972 36.9237 0.127614 35.4622 0.506161L25.3324 3.12964C23.9883 3.47704 23.5283 5.15415 24.5106 6.13646C25.6511 7.27449 26.7436 8.71681 27.4935 10.2909C28.1045 11.5727 29.6522 14.8191 28.2698 16.8484C26.8179 18.9759 23.5571 17.6366 21.8249 19.1508C20.0495 20.7057 19.6758 25.1333 25.3516 37.4601C25.4402 37.6517 25.5624 37.829 25.7134 37.9776C26.7963 39.0605 28.6483 38.5574 29.0317 37.0743Z" fill="#316AF7"/><path d="M1.27572 9.36155C-0.152222 9.75687 -0.159411 11.7862 1.25894 12.2174C5.62422 13.5423 14.3116 15.9718 19.8126 16.0029C21.3723 16.0125 24.9757 16.0317 25.8765 14.1701C25.922 14.0766 26.0586 13.7747 26.0873 13.2524C26.2335 10.593 23.2147 8.09893 21.2309 6.27567C20.1288 5.26222 18.5883 4.87648 17.1388 5.25264L1.31165 9.35197C1.31165 9.35197 1.29009 9.35676 1.27811 9.36155H1.27572Z" fill="#316AF7"/><path d="M50.3504 26.5L55.0304 12.1H58.0404L62.7204 26.5H60.5504L56.2404 13.36H56.7804L52.5204 26.5H50.3504ZM52.7804 23.25V21.29H60.3004V23.25H52.7804ZM66.6337 26.5L62.7137 15.7H64.8237L67.6937 23.88L70.5637 15.7H72.6737L68.7537 26.5H66.6337ZM78.8748 26.8C77.8015 26.8 76.8581 26.5667 76.0448 26.1C75.2381 25.6267 74.6081 24.97 74.1548 24.13C73.7081 23.2833 73.4848 22.3033 73.4848 21.19C73.4848 20.01 73.7048 18.9867 74.1448 18.12C74.5915 17.2533 75.2115 16.5833 76.0048 16.11C76.7981 15.6367 77.7215 15.4 78.7748 15.4C79.8748 15.4 80.8115 15.6567 81.5848 16.17C82.3581 16.6767 82.9348 17.4 83.3148 18.34C83.7015 19.28 83.8548 20.3967 83.7748 21.69H81.6848V20.93C81.6715 19.6767 81.4315 18.75 80.9648 18.15C80.5048 17.55 79.8015 17.25 78.8548 17.25C77.8081 17.25 77.0215 17.58 76.4948 18.24C75.9681 18.9 75.7048 19.8533 75.7048 21.1C75.7048 22.2867 75.9681 23.2067 76.4948 23.86C77.0215 24.5067 77.7815 24.83 78.7748 24.83C79.4281 24.83 79.9915 24.6833 80.4648 24.39C80.9448 24.09 81.3181 23.6633 81.5848 23.11L83.6348 23.76C83.2148 24.7267 82.5781 25.4767 81.7248 26.01C80.8715 26.5367 79.9215 26.8 78.8748 26.8ZM75.0248 21.69V20.06H82.7348V21.69H75.0248ZM93.3054 26.5V21.19C93.3054 20.77 93.2688 20.34 93.1954 19.9C93.1288 19.4533 92.9954 19.04 92.7954 18.66C92.6021 18.28 92.3254 17.9733 91.9654 17.74C91.6121 17.5067 91.1488 17.39 90.5754 17.39C90.2021 17.39 89.8488 17.4533 89.5154 17.58C89.1821 17.7 88.8888 17.8967 88.6354 18.17C88.3888 18.4433 88.1921 18.8033 88.0454 19.25C87.9054 19.6967 87.8354 20.24 87.8354 20.88L86.5354 20.39C86.5354 19.41 86.7188 18.5467 87.0854 17.8C87.4521 17.0467 87.9788 16.46 88.6654 16.04C89.3521 15.62 90.1821 15.41 91.1554 15.41C91.9021 15.41 92.5288 15.53 93.0354 15.77C93.5421 16.01 93.9521 16.3267 94.2654 16.72C94.5854 17.1067 94.8288 17.53 94.9954 17.99C95.1621 18.45 95.2754 18.9 95.3354 19.34C95.3954 19.78 95.4254 20.1667 95.4254 20.5V26.5H93.3054ZM85.7154 26.5V15.7H87.5854V18.82H87.8354V26.5H85.7154ZM102.1 26.79C101.353 26.79 100.727 26.67 100.22 26.43C99.7135 26.19 99.3001 25.8767 98.9801 25.49C98.6668 25.0967 98.4268 24.67 98.2601 24.21C98.0935 23.75 97.9801 23.3 97.9201 22.86C97.8601 22.42 97.8301 22.0333 97.8301 21.7V15.7H99.9501V21.01C99.9501 21.43 99.9835 21.8633 100.05 22.31C100.123 22.75 100.257 23.16 100.45 23.54C100.65 23.92 100.927 24.2267 101.28 24.46C101.64 24.6933 102.107 24.81 102.68 24.81C103.053 24.81 103.407 24.75 103.74 24.63C104.073 24.5033 104.363 24.3033 104.61 24.03C104.863 23.7567 105.06 23.3967 105.2 22.95C105.347 22.5033 105.42 21.96 105.42 21.32L106.72 21.81C106.72 22.79 106.537 23.6567 106.17 24.41C105.803 25.1567 105.277 25.74 104.59 26.16C103.903 26.58 103.073 26.79 102.1 26.79ZM105.67 26.5V23.38H105.42V15.7H107.53V26.5H105.67Z" fill="#343F52"/></svg>