<svg width="192" height="66" viewBox="0 0 192 66" fill="none" xmlns="http://www.w3.org/2000/svg">
<rect width="192" height="66" fill="white"/>
<path d="M13.397 44V22.1818H16.6889V31.6634H27.5661V22.1818H30.8686V44H27.5661V34.4865H16.6889V44H13.397ZM42.2997 44.3303C40.7656 44.3303 39.4268 43.9787 38.2834 43.2756C37.1399 42.5724 36.2521 41.5888 35.62 40.3246C34.9879 39.0604 34.6719 37.5831 34.6719 35.8928C34.6719 34.1953 34.9879 32.7109 35.62 31.4396C36.2521 30.1683 37.1399 29.1811 38.2834 28.478C39.4268 27.7749 40.7656 27.4233 42.2997 27.4233C43.8338 27.4233 45.1726 27.7749 46.3161 28.478C47.4595 29.1811 48.3473 30.1683 48.9794 31.4396C49.6115 32.7109 49.9276 34.1953 49.9276 35.8928C49.9276 37.5831 49.6115 39.0604 48.9794 40.3246C48.3473 41.5888 47.4595 42.5724 46.3161 43.2756C45.1726 43.9787 43.8338 44.3303 42.2997 44.3303ZM42.3104 41.6562C43.3047 41.6562 44.1286 41.3935 44.782 40.8679C45.4354 40.3423 45.9183 39.6428 46.2308 38.7692C46.5504 37.8956 46.7102 36.9332 46.7102 35.8821C46.7102 34.8381 46.5504 33.8793 46.2308 33.0057C45.9183 32.125 45.4354 31.4183 44.782 30.8857C44.1286 30.353 43.3047 30.0866 42.3104 30.0866C41.3089 30.0866 40.478 30.353 39.8175 30.8857C39.1641 31.4183 38.6776 32.125 38.358 33.0057C38.0455 33.8793 37.8892 34.8381 37.8892 35.8821C37.8892 36.9332 38.0455 37.8956 38.358 38.7692C38.6776 39.6428 39.1641 40.3423 39.8175 40.8679C40.478 41.3935 41.3089 41.6562 42.3104 41.6562ZM53.4831 50.1364V27.6364H56.5939V30.2891H56.8603C57.0449 29.9482 57.3113 29.554 57.6593 29.1065C58.0073 28.6591 58.4902 28.2685 59.1081 27.9347C59.726 27.5938 60.5428 27.4233 61.5584 27.4233C62.8794 27.4233 64.0584 27.7571 65.0953 28.4247C66.1323 29.0923 66.9455 30.0547 67.535 31.3118C68.1316 32.5689 68.4299 34.0817 68.4299 35.8501C68.4299 37.6186 68.1351 39.1349 67.5456 40.3991C66.9561 41.6562 66.1465 42.6257 65.1167 43.3075C64.0868 43.9822 62.9114 44.3196 61.5904 44.3196C60.5961 44.3196 59.7828 44.1527 59.1507 43.8189C58.5257 43.4851 58.0357 43.0945 57.6806 42.647C57.3255 42.1996 57.052 41.8018 56.8603 41.4538H56.6685V50.1364H53.4831ZM56.6046 35.8182C56.6046 36.9687 56.7715 37.9773 57.1053 38.8438C57.4391 39.7102 57.9221 40.3885 58.5542 40.8786C59.1863 41.3615 59.9604 41.603 60.8766 41.603C61.8283 41.603 62.6238 41.3509 63.263 40.8466C63.9022 40.3352 64.3851 39.6428 64.7118 38.7692C65.0456 37.8956 65.2125 36.9119 65.2125 35.8182C65.2125 34.7386 65.0492 33.7692 64.7225 32.9098C64.4029 32.0504 63.9199 31.3722 63.2736 30.875C62.6344 30.3778 61.8354 30.1293 60.8766 30.1293C59.9533 30.1293 59.1721 30.3672 58.5328 30.843C57.9007 31.3189 57.4213 31.983 57.0946 32.8352C56.7679 33.6875 56.6046 34.6818 56.6046 35.8182ZM79.7864 27.6364V30.1932H70.5392V27.6364H79.7864ZM73.0748 44V25.7401C73.0748 24.7173 73.2985 23.8686 73.7459 23.1939C74.1934 22.5121 74.7864 22.0043 75.525 21.6705C76.2637 21.3295 77.0662 21.1591 77.9327 21.1591C78.5719 21.1591 79.1188 21.2124 79.5733 21.3189C80.0279 21.4183 80.3652 21.5107 80.5854 21.5959L79.8397 24.174C79.6905 24.1314 79.4988 24.0817 79.2644 24.0249C79.03 23.9609 78.7459 23.929 78.4121 23.929C77.638 23.929 77.084 24.1207 76.7502 24.5043C76.4235 24.8878 76.2601 25.4418 76.2601 26.1662V44H73.0748ZM83.073 44V27.6364H86.2583V44H83.073ZM84.6816 25.1115C84.1277 25.1115 83.6518 24.9268 83.2541 24.5575C82.8635 24.1811 82.6681 23.7337 82.6681 23.2152C82.6681 22.6896 82.8635 22.2422 83.2541 21.8729C83.6518 21.4964 84.1277 21.3082 84.6816 21.3082C85.2356 21.3082 85.7079 21.4964 86.0985 21.8729C86.4963 22.2422 86.6951 22.6896 86.6951 23.2152C86.6951 23.7337 86.4963 24.1811 86.0985 24.5575C85.7079 24.9268 85.2356 25.1115 84.6816 25.1115ZM97.5962 44.3303C95.984 44.3303 94.5955 43.9858 93.4308 43.2969C92.2731 42.6009 91.3782 41.6243 90.7461 40.3672C90.1211 39.103 89.8086 37.6222 89.8086 35.9247C89.8086 34.2486 90.1211 32.7713 90.7461 31.4929C91.3782 30.2145 92.2589 29.2166 93.3881 28.4993C94.5245 27.782 95.8526 27.4233 97.3725 27.4233C98.2958 27.4233 99.1907 27.576 100.057 27.8814C100.924 28.1868 101.701 28.6662 102.39 29.3196C103.079 29.973 103.623 30.8217 104.02 31.8658C104.418 32.9027 104.617 34.1634 104.617 35.6477V36.777H91.609V34.3906H101.495C101.495 33.5526 101.325 32.8104 100.984 32.1641C100.643 31.5107 100.164 30.9957 99.5458 30.6193C98.935 30.2429 98.2177 30.0547 97.3938 30.0547C96.4989 30.0547 95.7177 30.2749 95.0501 30.7152C94.3896 31.1484 93.8782 31.7166 93.516 32.4197C93.1609 33.1158 92.9833 33.8722 92.9833 34.6889V36.5533C92.9833 37.647 93.1751 38.5774 93.5586 39.3445C93.9492 40.1115 94.4925 40.6974 95.1886 41.1023C95.8846 41.5 96.6978 41.6989 97.6282 41.6989C98.2319 41.6989 98.7823 41.6136 99.2795 41.4432C99.7766 41.2656 100.206 41.0028 100.569 40.6548C100.931 40.3068 101.208 39.8771 101.4 39.3658L104.414 39.9091C104.173 40.7969 103.74 41.5746 103.115 42.2422C102.497 42.9027 101.719 43.4176 100.782 43.7869C99.8512 44.1491 98.7894 44.3303 97.5962 44.3303ZM111.336 22.1818V44H108.151V22.1818H111.336ZM121.748 44.3196C120.426 44.3196 119.248 43.9822 118.211 43.3075C117.181 42.6257 116.371 41.6562 115.782 40.3991C115.199 39.1349 114.908 37.6186 114.908 35.8501C114.908 34.0817 115.203 32.5689 115.792 31.3118C116.389 30.0547 117.206 29.0923 118.243 28.4247C119.279 27.7571 120.455 27.4233 121.769 27.4233C122.784 27.4233 123.601 27.5938 124.219 27.9347C124.844 28.2685 125.327 28.6591 125.668 29.1065C126.016 29.554 126.286 29.9482 126.478 30.2891H126.669V22.1818H129.855V44H126.744V41.4538H126.478C126.286 41.8018 126.009 42.1996 125.647 42.647C125.292 43.0945 124.801 43.4851 124.176 43.8189C123.551 44.1527 122.742 44.3196 121.748 44.3196ZM122.451 41.603C123.367 41.603 124.141 41.3615 124.773 40.8786C125.412 40.3885 125.895 39.7102 126.222 38.8438C126.556 37.9773 126.723 36.9687 126.723 35.8182C126.723 34.6818 126.559 33.6875 126.233 32.8352C125.906 31.983 125.426 31.3189 124.794 30.843C124.162 30.3672 123.381 30.1293 122.451 30.1293C121.492 30.1293 120.693 30.3778 120.054 30.875C119.414 31.3722 118.931 32.0504 118.605 32.9098C118.285 33.7692 118.125 34.7386 118.125 35.8182C118.125 36.9119 118.289 37.8956 118.615 38.7692C118.942 39.6428 119.425 40.3352 120.064 40.8466C120.711 41.3509 121.506 41.603 122.451 41.603Z" fill="black"/>
<g filter="url(#filter0_bf_1_2)">
<rect x="137" y="15" width="37" height="37" rx="10" fill="url(#paint0_linear_1_2)"/>
<rect x="136" y="14" width="39" height="39" rx="11" stroke="url(#paint1_linear_1_2)" stroke-width="2"/>
</g>
<path d="M144.957 44H141.696L149.024 23.6364H152.574L159.902 44H156.641L150.884 27.3352H150.724L144.957 44ZM145.504 36.0256H156.084V38.6108H145.504V36.0256ZM165.915 23.6364V44H162.843V23.6364H165.915Z" fill="#E7E7E7"/>
<defs>
<filter id="filter0_bf_1_2" x="131" y="9" width="49" height="49" filterUnits="userSpaceOnUse" color-interpolation-filters="sRGB">
<feFlood flood-opacity="0" result="BackgroundImageFix"/>
<feGaussianBlur in="BackgroundImageFix" stdDeviation="2"/>
<feComposite in2="SourceAlpha" operator="in" result="effect1_backgroundBlur_1_2"/>
<feBlend mode="normal" in="SourceGraphic" in2="effect1_backgroundBlur_1_2" result="shape"/>
<feGaussianBlur stdDeviation="2" result="effect2_foregroundBlur_1_2"/>
</filter>
<linearGradient id="paint0_linear_1_2" x1="137" y1="-27.6923" x2="176.035" y2="88.2032" gradientUnits="userSpaceOnUse">
<stop offset="0.204565" stop-color="#8D91FB"/>
<stop offset="0.689402" stop-color="#686DED"/>
<stop offset="1" stop-color="#D9D9D9" stop-opacity="0"/>
</linearGradient>
<linearGradient id="paint1_linear_1_2" x1="155.5" y1="15" x2="155.5" y2="52" gradientUnits="userSpaceOnUse">
<stop stop-color="#E9EAF8"/>
<stop offset="0.99" stop-opacity="0"/>
</linearGradient>
</defs>
</svg>
