<svg width="272" height="98" viewBox="0 0 272 98" fill="none" xmlns="http://www.w3.org/2000/svg">
<rect width="272" height="98" fill="white"/>
<g filter="url(#filter0_d_34_39)">
<path d="M89.397 60V38.1818H92.6889V47.6634H103.566V38.1818H106.869V60H103.566V50.4865H92.6889V60H89.397ZM118.3 60.3303C116.766 60.3303 115.427 59.9787 114.283 59.2756C113.14 58.5724 112.252 57.5888 111.62 56.3246C110.988 55.0604 110.672 53.5831 110.672 51.8928C110.672 50.1953 110.988 48.7109 111.62 47.4396C112.252 46.1683 113.14 45.1811 114.283 44.478C115.427 43.7749 116.766 43.4233 118.3 43.4233C119.834 43.4233 121.173 43.7749 122.316 44.478C123.46 45.1811 124.347 46.1683 124.979 47.4396C125.612 48.7109 125.928 50.1953 125.928 51.8928C125.928 53.5831 125.612 55.0604 124.979 56.3246C124.347 57.5888 123.46 58.5724 122.316 59.2756C121.173 59.9787 119.834 60.3303 118.3 60.3303ZM118.31 57.6562C119.305 57.6562 120.129 57.3935 120.782 56.8679C121.435 56.3423 121.918 55.6428 122.231 54.7692C122.55 53.8956 122.71 52.9332 122.71 51.8821C122.71 50.8381 122.55 49.8793 122.231 49.0057C121.918 48.125 121.435 47.4183 120.782 46.8857C120.129 46.353 119.305 46.0866 118.31 46.0866C117.309 46.0866 116.478 46.353 115.817 46.8857C115.164 47.4183 114.678 48.125 114.358 49.0057C114.045 49.8793 113.889 50.8381 113.889 51.8821C113.889 52.9332 114.045 53.8956 114.358 54.7692C114.678 55.6428 115.164 56.3423 115.817 56.8679C116.478 57.3935 117.309 57.6562 118.31 57.6562ZM129.483 66.1364V43.6364H132.594V46.2891H132.86C133.045 45.9482 133.311 45.554 133.659 45.1065C134.007 44.6591 134.49 44.2685 135.108 43.9347C135.726 43.5938 136.543 43.4233 137.558 43.4233C138.879 43.4233 140.058 43.7571 141.095 44.4247C142.132 45.0923 142.945 46.0547 143.535 47.3118C144.132 48.5689 144.43 50.0817 144.43 51.8501C144.43 53.6186 144.135 55.1349 143.546 56.3991C142.956 57.6562 142.146 58.6257 141.117 59.3075C140.087 59.9822 138.911 60.3196 137.59 60.3196C136.596 60.3196 135.783 60.1527 135.151 59.8189C134.526 59.4851 134.036 59.0945 133.681 58.647C133.325 58.1996 133.052 57.8018 132.86 57.4538H132.669V66.1364H129.483ZM132.605 51.8182C132.605 52.9687 132.771 53.9773 133.105 54.8438C133.439 55.7102 133.922 56.3885 134.554 56.8786C135.186 57.3615 135.96 57.603 136.877 57.603C137.828 57.603 138.624 57.3509 139.263 56.8466C139.902 56.3352 140.385 55.6428 140.712 54.7692C141.046 53.8956 141.213 52.9119 141.213 51.8182C141.213 50.7386 141.049 49.7692 140.722 48.9098C140.403 48.0504 139.92 47.3722 139.274 46.875C138.634 46.3778 137.835 46.1293 136.877 46.1293C135.953 46.1293 135.172 46.3672 134.533 46.843C133.901 47.3189 133.421 47.983 133.095 48.8352C132.768 49.6875 132.605 50.6818 132.605 51.8182ZM155.786 43.6364V46.1932H146.539V43.6364H155.786ZM149.075 60V41.7401C149.075 40.7173 149.298 39.8686 149.746 39.1939C150.193 38.5121 150.786 38.0043 151.525 37.6705C152.264 37.3295 153.066 37.1591 153.933 37.1591C154.572 37.1591 155.119 37.2124 155.573 37.3189C156.028 37.4183 156.365 37.5107 156.585 37.5959L155.84 40.174C155.691 40.1314 155.499 40.0817 155.264 40.0249C155.03 39.9609 154.746 39.929 154.412 39.929C153.638 39.929 153.084 40.1207 152.75 40.5043C152.423 40.8878 152.26 41.4418 152.26 42.1662V60H149.075ZM159.073 60V43.6364H162.258V60H159.073ZM160.682 41.1115C160.128 41.1115 159.652 40.9268 159.254 40.5575C158.863 40.1811 158.668 39.7337 158.668 39.2152C158.668 38.6896 158.863 38.2422 159.254 37.8729C159.652 37.4964 160.128 37.3082 160.682 37.3082C161.236 37.3082 161.708 37.4964 162.099 37.8729C162.496 38.2422 162.695 38.6896 162.695 39.2152C162.695 39.7337 162.496 40.1811 162.099 40.5575C161.708 40.9268 161.236 41.1115 160.682 41.1115ZM173.596 60.3303C171.984 60.3303 170.596 59.9858 169.431 59.2969C168.273 58.6009 167.378 57.6243 166.746 56.3672C166.121 55.103 165.809 53.6222 165.809 51.9247C165.809 50.2486 166.121 48.7713 166.746 47.4929C167.378 46.2145 168.259 45.2166 169.388 44.4993C170.525 43.782 171.853 43.4233 173.373 43.4233C174.296 43.4233 175.191 43.576 176.057 43.8814C176.924 44.1868 177.701 44.6662 178.39 45.3196C179.079 45.973 179.623 46.8217 180.02 47.8658C180.418 48.9027 180.617 50.1634 180.617 51.6477V52.777H167.609V50.3906H177.495C177.495 49.5526 177.325 48.8104 176.984 48.1641C176.643 47.5107 176.164 46.9957 175.546 46.6193C174.935 46.2429 174.218 46.0547 173.394 46.0547C172.499 46.0547 171.718 46.2749 171.05 46.7152C170.39 47.1484 169.878 47.7166 169.516 48.4197C169.161 49.1158 168.983 49.8722 168.983 50.6889V52.5533C168.983 53.647 169.175 54.5774 169.559 55.3445C169.949 56.1115 170.493 56.6974 171.189 57.1023C171.885 57.5 172.698 57.6989 173.628 57.6989C174.232 57.6989 174.782 57.6136 175.279 57.4432C175.777 57.2656 176.206 57.0028 176.569 56.6548C176.931 56.3068 177.208 55.8771 177.4 55.3658L180.414 55.9091C180.173 56.7969 179.74 57.5746 179.115 58.2422C178.497 58.9027 177.719 59.4176 176.782 59.7869C175.851 60.1491 174.789 60.3303 173.596 60.3303ZM187.336 38.1818V60H184.151V38.1818H187.336ZM197.748 60.3196C196.426 60.3196 195.248 59.9822 194.211 59.3075C193.181 58.6257 192.371 57.6562 191.782 56.3991C191.199 55.1349 190.908 53.6186 190.908 51.8501C190.908 50.0817 191.203 48.5689 191.792 47.3118C192.389 46.0547 193.206 45.0923 194.243 44.4247C195.279 43.7571 196.455 43.4233 197.769 43.4233C198.784 43.4233 199.601 43.5938 200.219 43.9347C200.844 44.2685 201.327 44.6591 201.668 45.1065C202.016 45.554 202.286 45.9482 202.478 46.2891H202.669V38.1818H205.855V60H202.744V57.4538H202.478C202.286 57.8018 202.009 58.1996 201.647 58.647C201.292 59.0945 200.801 59.4851 200.176 59.8189C199.551 60.1527 198.742 60.3196 197.748 60.3196ZM198.451 57.603C199.367 57.603 200.141 57.3615 200.773 56.8786C201.412 56.3885 201.895 55.7102 202.222 54.8438C202.556 53.9773 202.723 52.9687 202.723 51.8182C202.723 50.6818 202.559 49.6875 202.233 48.8352C201.906 47.983 201.426 47.3189 200.794 46.843C200.162 46.3672 199.381 46.1293 198.451 46.1293C197.492 46.1293 196.693 46.3778 196.054 46.875C195.414 47.3722 194.931 48.0504 194.605 48.9098C194.285 49.7692 194.125 50.7386 194.125 51.8182C194.125 52.9119 194.289 53.8956 194.615 54.7692C194.942 55.6428 195.425 56.3352 196.064 56.8466C196.711 57.3509 197.506 57.603 198.451 57.603ZM220.439 60H216.945L224.797 38.1818H228.6L236.451 60H232.957L226.789 42.1449H226.618L220.439 60ZM221.025 51.456H232.36V54.2259H221.025V51.456ZM242.894 38.1818V60H239.602V38.1818H242.894Z" fill="black"/>
</g>
<path d="M60.8965 12.1584C60.7391 12.2447 60.417 12.4319 60.188 12.5831C59.9518 12.727 59.7157 12.8422 59.6656 12.8422C59.6155 12.8422 59.5725 12.8638 59.5725 12.8998C59.5725 12.9286 59.5081 12.9862 59.4366 13.0222C59.3578 13.0654 59.0143 13.2525 58.6708 13.4541C58.3273 13.6484 57.8979 13.9004 57.719 14.0012C57.54 14.1019 57.1965 14.3107 56.9675 14.4547C56.7313 14.5986 56.5095 14.7138 56.4737 14.7138C56.4379 14.7138 56.259 14.8218 56.0729 14.9514C55.894 15.0809 55.5648 15.2825 55.3501 15.3977C55.1354 15.5056 54.8706 15.6568 54.7633 15.736C54.6631 15.808 54.5557 15.8656 54.5271 15.8656C54.5056 15.8656 54.3124 15.9807 54.0977 16.1175C53.883 16.2543 53.5395 16.4486 53.3319 16.5566C53.1244 16.6574 52.9025 16.787 52.8453 16.8374C52.788 16.8949 52.5161 17.0533 52.2369 17.1973C51.965 17.3484 51.6501 17.5284 51.5427 17.6004C51.4426 17.6796 51.3352 17.7372 51.3137 17.7372C51.278 17.7372 50.8629 17.9819 49.8037 18.6226C49.6104 18.7449 49.3027 18.9177 49.1238 19.0113C48.9449 19.1049 48.7087 19.2416 48.587 19.3136C48.3437 19.4648 46.3542 20.6309 45.9749 20.8469C45.8389 20.9261 45.6957 21.0197 45.6528 21.0484C45.617 21.0772 45.3594 21.2212 45.0803 21.3724C44.8083 21.5235 44.5292 21.6819 44.472 21.7323C44.4147 21.7755 44.2215 21.8979 44.0426 21.9986C43.8636 22.0922 43.606 22.2434 43.47 22.3226C43.334 22.4017 43.0621 22.5529 42.8617 22.6609C42.6685 22.7761 42.4538 22.9056 42.3965 22.956C42.3393 23.0064 42.1103 23.136 41.8956 23.244C41.6809 23.3519 41.366 23.5391 41.2014 23.6471C41.0368 23.7623 40.8793 23.8558 40.8435 23.8558C40.8077 23.8558 40.6217 23.9638 40.4284 24.0934C40.228 24.2302 39.9418 24.3957 39.7843 24.4677C39.6269 24.5469 39.405 24.6765 39.2834 24.7628C39.1689 24.8492 38.9112 25.0076 38.7108 25.1084C38.3315 25.3099 38.0882 25.4539 38.0309 25.5115C38.0095 25.5331 37.8663 25.6123 37.7089 25.6914C37.5515 25.7706 37.4083 25.8498 37.3868 25.8714C37.3511 25.9074 37.2938 25.9434 36.571 26.3537C36.342 26.4833 36.0199 26.6848 35.8553 26.7928L35.5619 26.9944L35.5261 28.9523C35.5046 30.1977 35.4617 30.9103 35.4188 30.9031C35.2685 30.8815 35.0395 30.7735 34.9894 30.7016C34.9679 30.6584 34.7675 30.536 34.56 30.4352C34.3453 30.3344 34.152 30.2193 34.1234 30.1833C34.1019 30.1473 33.9302 30.0393 33.7369 29.9385C33.5509 29.8449 33.2503 29.665 33.0714 29.5426C32.8925 29.4274 32.7279 29.3267 32.7064 29.3267C32.6778 29.3267 32.5632 29.2547 32.4416 29.1683C32.2484 29.0243 32.2126 29.0171 31.9621 29.1035C31.819 29.1611 31.683 29.2259 31.6615 29.2475C31.6043 29.3123 31.3896 29.4418 30.9101 29.6938C30.6739 29.8233 30.3518 30.0033 30.1944 30.1113C30.0369 30.2121 29.7793 30.3632 29.6219 30.4424C29.4644 30.5144 29.2068 30.6656 29.0493 30.7663C28.8919 30.8743 28.5841 31.0471 28.3694 31.1551C28.1547 31.2702 27.9257 31.3998 27.8685 31.4502C27.8112 31.5006 27.5822 31.6302 27.3675 31.7381C27.1528 31.8461 26.8952 31.9901 26.795 32.0621C26.6948 32.1269 26.4729 32.2636 26.294 32.3644C25.3923 32.8683 23.5315 33.9553 23.3669 34.0704C23.2667 34.1424 23.052 34.2576 22.8946 34.3296C22.7371 34.4016 22.4723 34.5599 22.3077 34.6679L22 34.8767V38.008V41.1393L22.2004 41.3121C22.3077 41.4056 22.4294 41.492 22.4795 41.492C22.5296 41.492 22.7085 41.5856 22.8803 41.708C23.0592 41.8232 23.2309 41.9239 23.2739 41.9239C23.3097 41.9239 23.3812 41.9743 23.4313 42.0319C23.4814 42.0895 23.5745 42.1399 23.646 42.1399C23.7176 42.1399 23.8106 42.1903 23.8607 42.2479C23.9108 42.3126 24.0897 42.4278 24.2544 42.4998C24.419 42.5718 24.5979 42.687 24.648 42.7518C24.6981 42.8093 24.7983 42.8597 24.8698 42.8597C24.9414 42.8597 25.0201 42.8957 25.0416 42.9317C25.0702 42.9749 25.242 43.0829 25.4352 43.1837C25.6284 43.2772 25.9075 43.4428 26.0578 43.5508C26.2081 43.6516 26.4658 43.7955 26.6304 43.8747C26.795 43.9467 27.0741 44.1051 27.2387 44.2202C27.4104 44.3354 27.6752 44.4866 27.8327 44.5586C27.9901 44.6305 28.1762 44.7385 28.2478 44.7961C28.4052 44.9257 28.6128 45.0409 29.0279 45.2352C29.2139 45.3216 29.4072 45.444 29.4501 45.5016C29.5002 45.5591 29.6791 45.6671 29.8437 45.7463C30.0155 45.8183 30.2946 45.9767 30.4592 46.0918C30.6309 46.1998 30.8814 46.351 31.0174 46.4302C31.1534 46.5021 31.4325 46.6677 31.64 46.7973C31.8404 46.9269 32.0337 47.0348 32.0623 47.0348C32.0909 47.0348 32.1696 47.078 32.2269 47.1356C32.2913 47.186 32.5704 47.3516 32.8424 47.5027C33.1215 47.6467 33.3934 47.8123 33.4507 47.8626C33.5079 47.913 33.7012 48.0282 33.8801 48.1146C34.059 48.201 34.2451 48.3162 34.3023 48.3593C34.3524 48.4025 34.6458 48.5681 34.9464 48.7265L35.4903 49.0216L35.5261 66.0891C35.5476 75.4759 35.5762 83.171 35.5977 83.1926C35.6191 83.207 35.7337 83.279 35.8482 83.3438C35.9698 83.4086 36.1631 83.5237 36.2776 83.6029C36.3992 83.6821 36.5424 83.7685 36.5996 83.7901C36.6569 83.8189 36.7571 83.8837 36.8143 83.9269C36.8716 83.9772 37.0863 84.1068 37.2795 84.2148C37.4799 84.3156 37.7375 84.4667 37.852 84.5387C37.9737 84.6179 38.217 84.7619 38.4031 84.8627C38.582 84.9562 38.854 85.1218 38.9971 85.2226C39.1474 85.3162 39.4337 85.4817 39.6412 85.5825C39.8559 85.6833 40.0491 85.7984 40.0706 85.8344C40.0992 85.8776 40.4857 85.9064 40.9938 85.9064C41.8168 85.9064 41.9027 85.892 42.2248 85.7121C42.418 85.6113 42.6255 85.4817 42.6828 85.4313C42.74 85.3881 42.9547 85.2586 43.148 85.1434C43.3484 85.0354 43.6203 84.8842 43.7563 84.8051C43.8923 84.7259 44.1499 84.5819 44.3288 84.4811C44.5077 84.3876 44.701 84.2652 44.7582 84.2148C44.8155 84.1644 45.0946 83.9988 45.3665 83.8549C45.6456 83.7037 45.9534 83.5237 46.0607 83.4518C46.1609 83.3726 46.2683 83.315 46.2969 83.315C46.3184 83.315 46.5116 83.1998 46.7263 83.063C46.941 82.9263 47.2845 82.7319 47.4921 82.6239C47.6996 82.516 47.9716 82.3576 48.0932 82.264C48.2149 82.1704 48.3366 82.0913 48.358 82.0913C48.3867 82.0913 48.5799 81.9761 48.7946 81.8393C49.0093 81.7025 49.2025 81.5874 49.224 81.5874C49.2598 81.5874 50.2617 81.0043 50.6983 80.7307C50.7985 80.6732 50.9774 80.5724 51.0919 80.5076C51.4783 80.2988 51.8648 80.0685 52.1224 79.8885C52.2656 79.7949 52.4015 79.7158 52.4373 79.7158C52.466 79.7158 52.695 79.5934 52.9383 79.4422C53.1816 79.2839 53.5466 79.0679 53.7398 78.9527C53.9402 78.8376 54.1621 78.708 54.2408 78.6576C54.3195 78.6144 54.5128 78.5064 54.6702 78.4272C54.8277 78.3481 55.0996 78.1825 55.2785 78.0601C55.4574 77.9449 55.6221 77.8442 55.6507 77.8442C55.6793 77.8442 55.9298 77.7002 56.2089 77.5202C56.488 77.3403 56.7385 77.1963 56.7671 77.1963C56.7957 77.1963 57.0104 77.0667 57.2466 76.9084C57.4828 76.75 57.7046 76.6204 57.7333 76.6204C57.7691 76.6204 57.9265 76.5269 58.0911 76.4117C58.2557 76.3037 58.5706 76.1165 58.7853 76.0086C59 75.9006 59.2791 75.735 59.4008 75.6414C59.5224 75.5479 59.6441 75.4687 59.6727 75.4687C59.7014 75.4687 59.8874 75.3607 60.095 75.2311C60.3025 75.1016 60.646 74.9072 60.8607 74.792C61.0754 74.6769 61.3044 74.5473 61.3617 74.4969C61.419 74.4537 61.6337 74.3169 61.8269 74.2018C62.0273 74.0866 62.2491 73.957 62.3279 73.9138C62.4066 73.8634 62.6141 73.7483 62.793 73.6475C63.2868 73.3811 64.8542 72.4597 65.3408 72.1502C65.577 71.9918 65.7917 71.8695 65.8203 71.8695C65.9277 71.8695 66.6576 71.3512 66.7292 71.2288C66.7721 71.1424 66.8008 70.3866 66.8008 69.2996C66.8008 67.5144 66.8366 67.2265 67.0083 67.4352C67.0584 67.4928 67.2302 67.608 67.3948 67.6944C67.5594 67.7807 67.7526 67.9031 67.817 67.9607C67.8886 68.0255 68.0961 68.1479 68.2822 68.2414C68.4683 68.335 68.7259 68.479 68.8404 68.5582C68.9621 68.6374 69.1983 68.7669 69.3772 68.8605C69.5561 68.9469 69.7923 69.0909 69.8996 69.1844C70.0141 69.278 70.1286 69.35 70.1573 69.35C70.1859 69.35 70.4793 69.1916 70.8014 68.9901C71.1234 68.7957 71.4025 68.6302 71.424 68.6302C71.4455 68.6302 71.6244 68.515 71.8319 68.3782C72.0323 68.2414 72.2255 68.1263 72.2613 68.1263C72.2899 68.1263 72.5046 68.0111 72.7265 67.8599C72.9484 67.716 73.2632 67.5288 73.4207 67.4424C73.8286 67.2265 74.0576 67.0897 74.1006 67.0465C74.1221 67.0249 74.2652 66.9457 74.4226 66.8665C74.5801 66.7874 74.7232 66.7082 74.7447 66.6866C74.8019 66.629 75.0524 66.4778 75.4246 66.2835C75.625 66.1827 75.8826 66.0243 75.9971 65.9379C76.1188 65.8516 76.3406 65.722 76.4981 65.6428C76.6555 65.5708 76.9132 65.4269 77.0706 65.3189C77.228 65.2109 77.5358 65.0309 77.7505 64.9158C77.9652 64.8006 78.2228 64.6566 78.323 64.5918C78.4232 64.527 78.6594 64.3831 78.8526 64.2679C79.053 64.1527 79.3536 63.9728 79.5325 63.8576C79.7114 63.7496 79.9333 63.62 80.0263 63.5769L80.1838 63.4977V60.3232V57.1486L79.9547 57.0047C79.8331 56.9255 79.6041 56.7887 79.4538 56.7095C79.3035 56.6232 79.1174 56.5008 79.053 56.436C78.9814 56.3712 78.8669 56.3208 78.8025 56.3208C78.7381 56.3208 78.6665 56.2848 78.6451 56.2488C78.6164 56.2056 78.4447 56.0977 78.2515 55.9969C78.0654 55.9033 77.7648 55.7233 77.5859 55.601C77.407 55.4858 77.2352 55.385 77.1923 55.385C77.1565 55.385 77.0849 55.3346 77.0348 55.277C76.9847 55.2195 76.8917 55.1691 76.8201 55.1691C76.7557 55.1691 76.6412 55.1043 76.5696 55.0251C76.4981 54.9459 76.4122 54.8811 76.3692 54.8811C76.3335 54.8811 76.1617 54.7804 75.9828 54.6652C75.8039 54.5428 75.5104 54.3628 75.3244 54.2621C75.1455 54.1685 74.9021 54.0245 74.7805 53.9453C74.666 53.8662 74.4012 53.7222 74.2008 53.6286C74.0004 53.5278 73.8 53.3983 73.7499 53.3479C73.707 53.2903 73.5137 53.1679 73.3277 53.0815C72.9054 52.8872 72.705 52.772 72.5476 52.6352C72.476 52.5776 72.2828 52.4697 72.111 52.3977C71.9464 52.3257 71.7747 52.2249 71.7246 52.1673C71.6816 52.1097 71.4741 51.9874 71.2665 51.8866C71.0518 51.7858 70.8658 51.6778 70.8443 51.6346C70.8157 51.5986 70.558 51.4547 70.2718 51.3107C69.9783 51.1667 69.6992 51.0012 69.6563 50.9436C69.6062 50.886 69.4201 50.778 69.2412 50.6916C69.0623 50.6125 68.8619 50.5045 68.8046 50.4541C68.7474 50.4037 68.4754 50.2381 68.1963 50.0942C67.9244 49.9574 67.6524 49.7918 67.588 49.7414C67.5308 49.6839 67.3447 49.5759 67.1801 49.4895C67.0155 49.4031 66.8366 49.2663 66.7936 49.18C66.7292 49.0576 66.7149 45.0912 66.7435 32.1125L66.7865 15.2105L66.5074 15.0305C66.3571 14.937 66.2139 14.8578 66.1853 14.8578C66.1638 14.8578 65.9992 14.757 65.8203 14.6418C65.6414 14.5195 65.3408 14.3395 65.1547 14.2459C64.9615 14.1451 64.7898 14.0372 64.7611 13.994C64.7397 13.958 64.5464 13.8428 64.346 13.742C64.1385 13.6412 63.8809 13.4973 63.7592 13.4181C63.6447 13.3461 63.2797 13.1446 62.9505 12.979C62.6213 12.8134 62.242 12.6047 62.106 12.5039C61.9629 12.4103 61.6981 12.2591 61.5191 12.1656L61.1828 12L60.8965 12.1584ZM62.4853 14.9802C63.8451 15.664 63.8236 15.6352 63.2368 15.9879C63.0507 16.0959 62.8074 16.2471 62.6857 16.3119C62.5712 16.3839 62.3923 16.4846 62.2921 16.5278C62.1919 16.5782 62.0988 16.6358 62.0774 16.6646C62.0559 16.6862 61.8627 16.8014 61.648 16.9165C61.4333 17.0317 61.24 17.1469 61.2186 17.1757C61.1971 17.2045 61.0325 17.3053 60.8607 17.3988C60.6818 17.4996 60.3455 17.694 60.1164 17.8379C59.8803 17.9819 59.6584 18.0971 59.6226 18.0971C59.5868 18.0971 59.4008 18.2123 59.2147 18.349C59.0286 18.4858 58.8426 18.601 58.8068 18.601C58.7638 18.601 58.6064 18.6874 58.4561 18.7881C58.3058 18.8961 58.0339 19.0617 57.8549 19.1625C57.676 19.2632 57.4184 19.4072 57.2824 19.4864C57.1464 19.5656 56.8888 19.7167 56.7099 19.8175C56.5309 19.9111 56.2948 20.0695 56.1731 20.1486C56.0586 20.235 55.8511 20.3502 55.7294 20.4078C55.6006 20.4654 55.4932 20.5302 55.4932 20.559C55.4932 20.5949 55.4503 20.6165 55.393 20.6165C55.3358 20.6165 55.2427 20.6597 55.1926 20.7101C55.1426 20.7605 54.9851 20.8541 54.8491 20.9189C54.7132 20.9909 54.4197 21.1564 54.205 21.2932C53.9903 21.43 53.7041 21.6099 53.5752 21.6891C53.4464 21.7755 53.289 21.8403 53.2317 21.8403C53.1745 21.8403 53.1315 21.8619 53.1315 21.8979C53.1315 21.9267 53.0099 22.013 52.8667 22.0922C52.7164 22.1714 52.466 22.3154 52.3085 22.4161C52.1511 22.5241 51.9292 22.6609 51.8075 22.7185C51.4068 22.92 51.0919 23.1 51.0561 23.1432C51.0346 23.172 50.8629 23.2728 50.6625 23.3807C50.4692 23.4887 50.2116 23.6327 50.0899 23.7047C49.9754 23.7767 49.7178 23.9206 49.5174 24.0286C49.3242 24.1438 49.0809 24.2877 48.9807 24.3597C48.8805 24.4317 48.5942 24.5901 48.3437 24.7197C48.0861 24.8492 47.8356 24.9932 47.7783 25.0508C47.7211 25.1084 47.578 25.2019 47.4563 25.2595C47.3275 25.3171 47.0985 25.4467 46.941 25.5403C46.7836 25.641 46.5402 25.7778 46.4043 25.8426C46.2683 25.9146 46.025 26.0586 45.8675 26.1593C45.7101 26.2673 45.4023 26.4473 45.1876 26.5553C44.9729 26.6632 44.7439 26.7928 44.6867 26.8432C44.6294 26.8936 44.4362 27.016 44.2573 27.1095C44.0783 27.2103 43.8064 27.3615 43.6489 27.4551C43.4915 27.5486 43.2338 27.6926 43.0764 27.7862C42.2749 28.2325 41.688 28.578 41.4089 28.7724L41.1012 28.9811L40.5501 28.7076C40.2495 28.5564 39.8416 28.3333 39.6412 28.2181C39.448 28.0957 39.1903 27.9446 39.0687 27.887C38.9542 27.8294 38.7824 27.7286 38.6965 27.6638C38.4818 27.5054 38.489 27.4982 39.4766 26.9584C39.6412 26.8648 39.8344 26.7496 39.8917 26.6992C39.9489 26.6488 40.1422 26.5265 40.3211 26.4329C40.5 26.3321 40.772 26.1809 40.9294 26.0874C41.0868 25.9938 41.3588 25.8426 41.5234 25.749C41.6952 25.6554 41.9456 25.4971 42.0673 25.4035C42.1961 25.3027 42.3321 25.2235 42.3679 25.2235C42.4108 25.2235 42.6756 25.0796 42.9619 24.8996C43.2482 24.7197 43.5058 24.5757 43.5344 24.5757C43.5559 24.5757 43.742 24.4677 43.9352 24.3381C44.1356 24.2014 44.472 23.9998 44.6867 23.8846C44.9014 23.7767 45.1805 23.6111 45.295 23.5319C45.4166 23.4455 45.6099 23.3375 45.7244 23.28C45.846 23.2224 45.9892 23.1432 46.0464 23.0928C46.1538 23.0064 46.44 22.8409 46.9052 22.5889C47.0412 22.5097 47.17 22.4305 47.1915 22.409C47.213 22.3802 47.4062 22.2722 47.6209 22.1642C47.8356 22.0562 48.0288 21.9411 48.0503 21.9123C48.0718 21.8835 48.2149 21.7899 48.3723 21.7035C48.5298 21.6243 48.7874 21.4732 48.9449 21.3724C49.1023 21.2788 49.3456 21.142 49.4816 21.0772C49.6176 21.0053 49.8323 20.8829 49.9468 20.7965C50.0685 20.7101 50.3261 20.5518 50.5337 20.451C50.734 20.343 50.9201 20.2278 50.9487 20.1846C50.9702 20.1486 51.0561 20.1126 51.1348 20.1126C51.2064 20.1126 51.2708 20.0839 51.2708 20.0479C51.2708 20.0119 51.4068 19.9111 51.5785 19.8319C51.7431 19.7455 52.0079 19.5944 52.1654 19.5008C52.3228 19.4 52.5805 19.256 52.7379 19.1768C52.8954 19.1049 53.1387 18.9537 53.2747 18.8529C53.4106 18.7521 53.6611 18.601 53.8257 18.529C53.9903 18.457 54.2694 18.2986 54.4484 18.1763C54.6201 18.0539 54.842 17.9243 54.935 17.8811C55.028 17.8451 55.2642 17.7156 55.4574 17.5932C55.6578 17.4708 56.0443 17.2621 56.3162 17.1181C56.5954 16.9741 56.8315 16.8302 56.853 16.8014C56.8745 16.7726 57.2108 16.5782 57.6045 16.3695C57.9981 16.1679 58.3559 15.9663 58.3917 15.9375C58.4346 15.9088 58.6279 15.7936 58.8211 15.6784C59.0215 15.5704 59.3077 15.4049 59.4652 15.3113C59.6226 15.2177 59.959 15.0305 60.2166 14.8938C60.4743 14.757 60.7605 14.5842 60.8607 14.5051C60.9609 14.4259 61.0897 14.3539 61.147 14.3539C61.2043 14.3539 61.8126 14.6346 62.4853 14.9802ZM64.8041 34.6679C64.8327 51.6346 64.8327 51.7066 64.6896 51.8146C64.6108 51.8794 64.389 52.0233 64.1886 52.1457C63.6662 52.4625 63.566 52.52 63.3155 52.7C63.1938 52.7936 63.065 52.8656 63.0364 52.8656C63.0077 52.8656 62.8861 52.9376 62.7644 53.0311C62.3279 53.3623 62.3207 53.3551 62.2706 52.592C62.242 52.2033 62.2205 45.1632 62.2205 36.9354C62.2205 22.3586 62.2205 21.9842 62.0845 21.9842C62.013 21.9842 61.9128 22.0274 61.8698 22.085C61.8197 22.1426 61.605 22.2722 61.3832 22.3802C61.1613 22.4809 60.8464 22.6609 60.689 22.7689C60.5244 22.884 60.2667 23.028 60.1093 23.1C59.9518 23.1792 59.73 23.3088 59.6083 23.3951C59.4938 23.4815 59.2362 23.6399 59.0358 23.7407C58.8426 23.8486 58.5849 23.9926 58.4632 24.0646C58.3487 24.1366 58.1054 24.2733 57.9265 24.3741C57.7476 24.4749 57.4899 24.6261 57.354 24.7053C57.218 24.7844 56.9603 24.9356 56.7814 25.0292C56.4809 25.1875 55.4574 25.7922 54.9565 26.0946C54.842 26.1665 54.6273 26.2817 54.4913 26.3537C54.3553 26.4185 54.0762 26.584 53.8687 26.7136C53.6611 26.8432 53.4822 26.9512 53.4607 26.9512C53.425 26.9512 52.7952 27.3255 51.736 27.9661C51.6215 28.0381 51.4068 28.1533 51.2708 28.2181C51.1348 28.2901 50.9344 28.4053 50.8342 28.47C50.734 28.542 50.2331 28.8372 49.725 29.1323C49.2168 29.4202 48.5584 29.8233 48.2578 30.0177C47.9573 30.2121 47.6209 30.428 47.5064 30.4928C47.3919 30.5576 46.9911 30.8095 46.619 31.0471C46.2468 31.2846 45.66 31.6446 45.3164 31.8533L44.6938 32.2276L44.6509 32.6307C44.6294 32.8539 44.5793 33.257 44.5292 33.5377C44.4863 33.8329 44.4433 35.287 44.429 37.0938L44.4147 40.1459L43.8493 40.4626C43.5416 40.6426 43.2625 40.8082 43.2195 40.8442C43.0406 40.9881 42.1603 41.4128 42.1031 41.3769C42.0673 41.3553 42.0387 39.0374 42.0387 36.0572V30.7735L42.2248 30.6296C42.3321 30.5432 42.4466 30.4784 42.4824 30.4784C42.5182 30.4784 42.6828 30.3848 42.8474 30.2696C43.012 30.1617 43.3269 29.9745 43.5416 29.8665C43.7563 29.7586 44.0354 29.593 44.1499 29.5066C44.2716 29.4202 44.4934 29.2907 44.6509 29.2187C44.8083 29.1467 45.0946 28.9811 45.295 28.8444C45.4882 28.7148 45.6743 28.6068 45.7101 28.6068C45.7458 28.6068 45.9033 28.5132 46.0679 28.3981C46.2325 28.2901 46.5474 28.1029 46.7621 27.9949C46.9768 27.887 47.2559 27.7214 47.3704 27.6422C47.4921 27.5558 47.7139 27.4191 47.8714 27.3399C48.0288 27.2679 48.172 27.1815 48.1791 27.1455C48.1934 27.1167 48.2292 27.0951 48.265 27.0951C48.3222 27.0951 48.6157 26.9224 49.5317 26.3609C49.775 26.2097 50.0041 26.0874 50.0327 26.0874C50.0685 26.0874 50.2116 26.0082 50.3476 25.9146C50.4907 25.8138 50.7627 25.6482 50.9559 25.5403C51.1491 25.4323 51.4068 25.2883 51.5213 25.2163C51.6429 25.1444 51.8648 25.0148 52.0222 24.9284C52.1797 24.842 52.4373 24.6837 52.5948 24.5829C52.7522 24.4749 52.9812 24.3453 53.0957 24.2877C53.2174 24.2302 53.4393 24.1006 53.5967 24.007C53.7542 23.9062 53.9474 23.7982 54.0261 23.7551C54.2265 23.6399 55.1712 23.0856 55.6006 22.8265C55.801 22.7113 56.123 22.5241 56.3162 22.4161C56.6311 22.2506 57.4971 21.7395 58.7137 21.0125C59.1431 20.7533 59.5224 20.5374 59.9662 20.2926C60.4456 20.0263 62.0344 19.0905 62.1132 19.0329C62.1561 19.0041 62.3279 18.8961 62.5068 18.7953C63.5159 18.2267 64.0741 17.9027 64.2602 17.766C64.5178 17.586 64.6752 17.5212 64.7325 17.586C64.7611 17.6076 64.7969 25.2955 64.8041 34.6679ZM60.2166 39.3325C60.2166 49.0216 60.1952 53.2255 60.1379 53.2255C60.0735 53.2255 59.866 53.1175 59.0143 52.6352C58.8855 52.5632 58.7352 52.5056 58.678 52.5056C58.6207 52.5056 58.5706 52.4769 58.5706 52.4481C58.5706 52.4121 58.4132 52.3185 58.2128 52.2321C57.948 52.1169 57.8478 52.0233 57.8048 51.8794C57.7762 51.7642 57.7547 46.099 57.7476 39.2749V26.872L57.9265 26.7352C58.0267 26.656 58.2056 26.5481 58.3273 26.4905C58.4418 26.4329 58.5992 26.3177 58.678 26.2313C58.7495 26.1521 58.8354 26.0874 58.8712 26.0874C58.907 26.0874 59.1074 25.9794 59.3149 25.8498C59.5153 25.7274 59.7515 25.5835 59.8302 25.5331C59.9017 25.4899 60.0234 25.4467 60.095 25.4467C60.2095 25.4395 60.2166 26.1449 60.2166 39.3325ZM55.6364 35.4093C55.6364 39.4693 55.6221 42.7877 55.6006 42.7877C55.5791 42.7877 55.4431 42.7158 55.2928 42.6222C55.1497 42.5286 54.9135 42.399 54.7776 42.3342C54.6416 42.2623 54.2408 42.0319 53.8901 41.816C53.5395 41.6 53.2246 41.42 53.1959 41.42C53.1602 41.42 53.1315 41.3984 53.1315 41.3625C53.1315 41.3337 52.9956 41.2473 52.8238 41.1681C52.6592 41.0889 52.3586 40.9233 52.1511 40.7938C51.9435 40.6642 51.7574 40.5562 51.736 40.5562C51.7145 40.5562 51.5427 40.4483 51.3567 40.3187C51.1706 40.1891 50.8915 40.0235 50.734 39.9516C50.5766 39.8724 50.3118 39.7212 50.1472 39.6132C49.9826 39.4981 49.8323 39.4045 49.8037 39.4045C49.7822 39.4045 49.5818 39.2893 49.3671 39.1525C49.1524 39.0158 48.952 38.9006 48.9162 38.9006C48.8805 38.9006 48.8161 38.8502 48.766 38.7926C48.7159 38.735 48.6157 38.6846 48.5441 38.6846C48.4654 38.6846 48.4081 38.6558 48.4081 38.6198C48.4081 38.5839 48.3008 38.5047 48.1791 38.4399C48.0503 38.3751 47.8785 38.2815 47.7998 38.2311C47.0985 37.7992 46.8909 37.6768 46.8408 37.6768C46.8122 37.6768 46.6977 37.5977 46.5903 37.4969L46.4043 37.3241V35.4021V33.4874L46.619 33.2858C46.7335 33.1778 46.9482 33.0339 47.0985 32.9619C47.2487 32.8899 47.4992 32.7459 47.6567 32.6451C47.8141 32.5444 48.0718 32.3932 48.2292 32.314C48.3867 32.2348 48.5513 32.1484 48.587 32.1125C48.7445 31.9901 49.2025 31.7021 49.2383 31.7021C49.2598 31.7021 49.4387 31.5942 49.6462 31.4646C49.8538 31.335 50.1329 31.1695 50.2689 31.1047C50.4048 31.0327 50.6696 30.8815 50.8557 30.7663C51.0346 30.6584 51.328 30.4784 51.507 30.3848C51.6859 30.284 51.9578 30.1185 52.1224 30.0177C52.2799 29.9169 52.4302 29.8305 52.4516 29.8305C52.466 29.8305 52.6592 29.7154 52.8739 29.5786C53.0886 29.4418 53.289 29.3267 53.3104 29.3267C53.3319 29.3267 53.5323 29.2115 53.747 29.0747C53.9617 28.9379 54.1549 28.8228 54.1692 28.8228C54.1907 28.8228 54.341 28.7364 54.5056 28.6356C54.9279 28.3621 55.5219 28.0381 55.5863 28.0309C55.6149 28.0309 55.6364 31.3494 55.6364 35.4093ZM38.9899 30.1041C39.4408 30.392 39.8416 30.6728 39.8774 30.716C39.9203 30.7663 39.9919 31.5942 40.0348 32.566C40.1422 34.6103 40.0849 41.2545 39.9632 41.3769C39.9132 41.4272 39.8487 41.4272 39.7629 41.3769C39.6985 41.3337 39.4838 41.2113 39.2834 41.1033C39.0901 40.9881 38.8253 40.8226 38.6965 40.729C38.5749 40.6354 38.4317 40.5562 38.3888 40.5562C38.2528 40.5562 37.7518 40.2035 37.666 40.0379C37.6015 39.9156 37.5944 38.6486 37.623 34.7615C37.6445 31.9541 37.6874 29.5786 37.7089 29.4922C37.7662 29.3123 37.6731 29.2691 38.9899 30.1041ZM32.7422 31.7093C33.0499 31.8677 33.3219 32.0333 33.3433 32.0621C33.3648 32.0981 33.6224 32.242 33.9159 32.386C34.2093 32.5228 34.4669 32.6739 34.4884 32.7171C34.517 32.7531 34.7031 32.8683 34.9035 32.9619C35.5905 33.293 35.5261 32.8467 35.5261 37.1226C35.5261 39.4117 35.5547 40.9809 35.5977 41.0889C35.6406 41.2185 35.7909 41.3337 36.0557 41.456C36.2704 41.5568 36.4708 41.672 36.4923 41.708C36.5209 41.7512 36.7284 41.8807 36.9574 41.9959C37.1865 42.1111 37.394 42.2407 37.4226 42.2839C37.4441 42.3198 37.6445 42.435 37.8592 42.5358C38.0739 42.6366 38.2671 42.7662 38.2886 42.8237C38.3172 42.8813 38.3888 42.9317 38.4532 42.9317C38.5176 42.9389 38.6965 43.0325 38.854 43.1477C39.0114 43.2628 39.2834 43.4212 39.4623 43.5076C39.6412 43.594 39.8487 43.7163 39.9275 43.7883C40.0062 43.8603 40.2209 43.9899 40.407 44.0763C40.6002 44.1698 40.772 44.2706 40.7934 44.3138C40.8221 44.3498 40.9437 44.3642 41.0725 44.3426C41.2944 44.2994 41.4447 44.2274 42.3178 43.7091C42.4967 43.6012 42.7901 43.4428 42.9691 43.3564C43.148 43.27 43.4271 43.1045 43.5917 42.9965C43.7563 42.8813 43.9137 42.7877 43.9424 42.7877C43.971 42.7877 44.1213 42.6798 44.2859 42.5502C44.4505 42.4206 44.7081 42.2263 44.8656 42.1183C45.023 42.0103 45.252 41.8448 45.3737 41.7512C45.6242 41.5712 46.4615 40.7146 46.7836 40.3043C46.8981 40.1675 47.034 40.0523 47.077 40.0523C47.1915 40.0523 47.6066 40.2539 47.6567 40.3403C47.6781 40.3691 47.9286 40.5202 48.2077 40.6642C48.494 40.8154 48.7946 40.9881 48.8733 41.0529C48.952 41.1177 49.1667 41.2473 49.3528 41.3409C49.5389 41.4272 49.7106 41.528 49.7321 41.564C49.7536 41.5928 50.0041 41.744 50.2832 41.8879C50.5694 42.0319 50.87 42.2047 50.9487 42.2767C51.0275 42.3486 51.235 42.4782 51.4139 42.5646C51.5928 42.651 51.8362 42.7805 51.9507 42.8597C52.0723 42.9389 52.3085 43.0685 52.4874 43.1549C52.6663 43.2412 52.8739 43.3708 52.9526 43.4356C53.0313 43.5076 53.3033 43.666 53.5609 43.8027C53.8186 43.9323 54.0834 44.0835 54.1478 44.1411C54.2193 44.1986 54.434 44.3354 54.6273 44.4362C54.8277 44.537 55.1497 44.7169 55.3573 44.8393L55.7222 45.0553L55.6865 47.4883C55.6435 49.9502 55.758 52.2969 55.9226 52.4625C55.9656 52.5056 55.9942 52.6352 55.9942 52.7648C55.9942 52.9591 56.0515 53.0383 56.4093 53.2903C57.1679 53.8446 57.3182 53.9381 57.4756 54.0101C57.5544 54.0461 57.6474 54.1181 57.676 54.1541C57.6975 54.1973 57.8907 54.3125 58.1054 54.4132C58.313 54.514 58.5205 54.6436 58.5706 54.7012C58.6207 54.7588 58.8927 54.9171 59.1789 55.0539C59.4652 55.1907 59.7228 55.3346 59.7443 55.3778C59.7729 55.421 60.0306 55.5722 60.3168 55.709C60.6103 55.8457 60.8822 56.0113 60.9323 56.0689C60.9824 56.1265 61.0826 56.1769 61.1542 56.1769C61.3259 56.1769 61.8627 55.9249 62.3279 55.6298C62.5282 55.5074 62.8503 55.3202 63.0435 55.2123C63.2439 55.1043 63.5015 54.9603 63.6161 54.8811C63.7377 54.8019 63.8952 54.7084 63.9739 54.6724C64.2172 54.5572 65.3265 53.7798 65.6843 53.4774C66.2569 52.9951 66.4072 52.844 66.7865 52.3905C67.1658 51.9226 67.3805 51.8074 67.5236 51.973C67.5737 52.0305 67.7812 52.1601 67.9888 52.2537C68.1963 52.3473 68.3824 52.4625 68.411 52.4984C68.4325 52.5416 68.5971 52.6424 68.7689 52.7216C68.9406 52.8008 69.0981 52.8944 69.1267 52.9375C69.1482 52.9735 69.3342 53.0887 69.5418 53.1895C69.7493 53.2975 69.9783 53.4414 70.0571 53.5134C70.1358 53.5854 70.2646 53.6574 70.3433 53.6862C70.4221 53.7078 70.7155 53.8733 70.9874 54.0533C71.2665 54.2333 71.517 54.3772 71.5528 54.3772C71.5814 54.3772 71.7532 54.478 71.9321 54.5932C72.111 54.7156 72.4116 54.8955 72.5977 54.9891C72.7909 55.0899 72.9627 55.1979 72.9913 55.2339C73.0128 55.277 73.2704 55.421 73.5638 55.565C73.8573 55.709 74.1149 55.8601 74.1435 55.8961C74.165 55.9321 74.3511 56.0473 74.5515 56.1481C74.9737 56.3568 75.081 56.4216 75.5104 56.7023C75.6822 56.8103 75.8468 56.8967 75.8826 56.8967C75.9184 56.8967 76.04 56.9687 76.1545 57.0623C76.2619 57.1558 76.4766 57.2854 76.6269 57.3574C77.0921 57.5734 77.0563 57.7245 76.4623 58.0269C76.3263 58.0988 76.0615 58.2572 75.8826 58.3868C75.6965 58.5163 75.5248 58.6243 75.5033 58.6243C75.4603 58.6243 74.0863 59.4665 73.7141 59.7257C73.5996 59.8049 73.3062 59.9704 73.07 60.1C72.8267 60.2224 72.5046 60.4023 72.3472 60.4959C72.1898 60.5895 71.8677 60.7695 71.6315 60.8918C71.3954 61.0214 70.966 61.2662 70.6797 61.4317L70.1644 61.7412L69.7207 61.5037C69.4774 61.3741 69.1696 61.187 69.0337 61.1006C68.8977 61.007 68.6186 60.8486 68.411 60.7479C68.1963 60.6471 68.0031 60.5319 67.9816 60.4959C67.9602 60.4599 67.7598 60.3376 67.5522 60.2368C67.3375 60.136 67.1443 60.028 67.1228 59.992C67.1014 59.9632 66.8509 59.8121 66.5718 59.6681C66.2855 59.5169 65.9849 59.3442 65.9062 59.2722C65.8275 59.2074 65.6486 59.0994 65.5054 59.0346C65.3623 58.9698 65.2048 58.8691 65.1547 58.8043C65.1046 58.7467 65.0116 58.6963 64.94 58.6963C64.8685 58.6963 64.7754 58.6531 64.7325 58.6027C64.6896 58.5451 64.5178 58.4444 64.3532 58.3724C64.1814 58.3004 63.981 58.1852 63.9023 58.1132C63.8236 58.0484 63.6232 57.9189 63.4515 57.8325C63.2868 57.7461 63.1294 57.6453 63.1079 57.6093C63.0865 57.5734 63.0149 57.5446 62.9433 57.5446C62.8718 57.5446 62.7716 57.4942 62.7215 57.4366C62.6714 57.3718 62.5139 57.271 62.3708 57.2062C62.2277 57.1414 62.0201 57.0119 61.9128 56.9183C61.7983 56.8247 61.6766 56.7527 61.6408 56.7527C61.605 56.7527 61.4404 56.6663 61.2687 56.5584C60.8393 56.2776 60.7319 56.2128 60.3097 56.0041C60.1093 55.9033 59.9161 55.7809 59.8946 55.7377C59.866 55.7018 59.6799 55.5866 59.4795 55.4858C59 55.2483 58.8139 55.1475 58.6636 55.0107C58.5921 54.9531 58.3988 54.8451 58.2271 54.7732C58.0625 54.7012 57.8907 54.6004 57.8478 54.55C57.8048 54.4924 57.5329 54.3412 57.2466 54.2045C56.9675 54.0605 56.6956 53.9021 56.6526 53.8518C56.6025 53.7942 56.4308 53.6934 56.2662 53.6214C56.0944 53.5494 55.894 53.427 55.8153 53.3623C55.7366 53.2903 55.436 53.1175 55.1497 52.9735C54.8706 52.8296 54.613 52.6784 54.5915 52.6424C54.57 52.6064 54.3768 52.4912 54.1692 52.3905C53.9545 52.2897 53.7613 52.1745 53.7327 52.1385C53.7112 52.1025 53.4393 51.9442 53.1315 51.7858C52.8238 51.6274 52.5518 51.4691 52.5232 51.4259C52.5017 51.3899 52.3371 51.2891 52.1654 51.2099C51.9936 51.1307 51.829 51.0372 51.8075 50.994C51.7861 50.958 51.4998 50.7924 51.1778 50.6269C50.8557 50.4685 50.4907 50.2669 50.3619 50.1805C50.0041 49.9358 49.5603 49.6695 49.088 49.4103C48.8518 49.2807 48.6085 49.1368 48.5513 49.0864C48.494 49.036 48.2936 48.928 48.1075 48.8416C47.9215 48.7625 47.7569 48.6617 47.7282 48.6257C47.7068 48.5825 47.5994 48.5105 47.4921 48.4529C46.8838 48.1434 46.5402 47.949 46.5116 47.8986C46.4901 47.8626 46.2969 47.7547 46.0822 47.6539C45.8747 47.5531 45.6743 47.4379 45.6528 47.3947C45.6313 47.3588 45.3737 47.2076 45.0874 47.0708C44.794 46.934 44.5221 46.7685 44.472 46.7109C44.4219 46.6533 44.1499 46.4877 43.8565 46.351C43.5702 46.2142 43.3126 46.063 43.2911 46.027C43.2696 45.9839 43.0692 45.8687 42.8617 45.7679C42.647 45.6671 42.4538 45.5591 42.4323 45.5232C42.4108 45.4872 42.3035 45.4152 42.1961 45.3576C41.5735 45.0409 41.2443 44.8537 41.2085 44.7961C41.187 44.7601 41.0224 44.6593 40.8364 44.5802C40.6503 44.4938 40.4499 44.3858 40.3927 44.3282C40.3282 44.2778 40.0563 44.1123 39.7843 43.9611C39.2046 43.6444 38.9041 43.4644 38.5534 43.234C38.4246 43.1477 38.2671 43.0757 38.217 43.0757C38.1598 43.0757 38.081 43.0253 38.0309 42.9677C37.9809 42.9029 37.7662 42.7733 37.5586 42.6798C37.3511 42.5862 37.165 42.4782 37.1435 42.4422C37.1221 42.399 36.9002 42.2695 36.6569 42.1399C36.4064 42.0103 36.0414 41.8016 35.8338 41.6648C35.6335 41.528 35.4402 41.42 35.4116 41.42C35.383 41.42 35.3043 41.3769 35.247 41.3193C35.1826 41.2617 34.8892 41.0961 34.5957 40.9377C34.3023 40.7866 34.0017 40.6066 33.9373 40.5346C33.8658 40.4698 33.7727 40.4123 33.7298 40.4123C33.6868 40.4123 33.5079 40.3115 33.329 40.1963C33.1573 40.0739 32.9855 39.9804 32.9497 39.9804C32.9139 39.9804 32.7422 39.8796 32.5704 39.7644C32.3915 39.642 32.2197 39.5484 32.1768 39.5484C32.141 39.5484 32.0623 39.4981 32.0122 39.4333C31.9621 39.3685 31.7545 39.2389 31.5542 39.1525C31.3609 39.059 31.0747 38.9006 30.9244 38.7998C30.7741 38.6918 30.5236 38.5479 30.3733 38.4687C30.223 38.3895 29.9582 38.2311 29.7865 38.116C29.6147 38.0008 29.3284 37.8424 29.1424 37.756C28.9563 37.6768 28.7845 37.5689 28.7631 37.5257C28.7344 37.4897 28.5484 37.3745 28.348 37.2737C27.8685 37.0362 27.6824 36.9354 27.5321 36.7986C27.4605 36.7411 27.2673 36.6331 27.0956 36.5611C26.9309 36.4891 26.7592 36.3883 26.7162 36.3379C26.6733 36.2876 26.4014 36.122 26.1079 35.978C25.4925 35.6613 25.1919 35.3949 25.3636 35.2942C25.4209 35.2582 25.7644 35.0422 26.1151 34.8191C26.4729 34.5959 26.9023 34.3368 27.0812 34.2432C27.2602 34.1424 27.4534 34.0272 27.5106 33.9768C27.5679 33.9265 27.8112 33.7753 28.0474 33.6313C28.4338 33.401 28.6342 33.2858 29.1638 32.9907C29.2569 32.9331 29.4787 32.8035 29.6576 32.6955C30.2946 32.314 31.9836 31.4214 32.0766 31.4142C32.1267 31.4142 32.4273 31.5438 32.7422 31.7093ZM24.5549 37.4465C24.741 37.5617 25.0344 37.7128 25.2062 37.7848C25.3708 37.8568 25.5068 37.9504 25.5068 37.9792C25.5068 38.0152 25.6785 38.116 25.8861 38.2167C26.1008 38.3103 26.3155 38.4399 26.3656 38.5047C26.4157 38.5623 26.4944 38.6126 26.5516 38.6126C26.6017 38.6126 26.7592 38.6846 26.8952 38.771C27.4605 39.1381 27.7826 39.3325 28.1834 39.534C28.4124 39.6564 28.6485 39.8004 28.7201 39.858C28.7845 39.9156 28.9849 40.0307 29.1638 40.1099C29.3427 40.1963 29.536 40.3115 29.5861 40.3763C29.6362 40.4339 29.7149 40.4842 29.7721 40.4842C29.8222 40.4842 30.0083 40.5778 30.1801 40.7002C30.359 40.8154 30.5308 40.9161 30.5737 40.9161C30.6095 40.9161 30.6882 40.9665 30.7383 41.0313C30.7884 41.0961 30.9959 41.2257 31.1963 41.3121C31.3896 41.4056 31.6758 41.564 31.8261 41.6648C31.9764 41.7728 32.2269 41.9167 32.3772 41.9959C32.5275 42.0751 32.7708 42.2191 32.9139 42.3198C33.0642 42.4134 33.3505 42.579 33.558 42.6798C33.7727 42.7805 33.966 42.8957 33.9874 42.9389C34.0161 42.9749 34.2021 43.0901 34.4025 43.1837C34.6101 43.2772 34.8963 43.4356 35.0466 43.5364C35.1969 43.6444 35.4474 43.7883 35.5977 43.8675C35.748 43.9467 35.9913 44.0907 36.1344 44.1842C36.2704 44.285 36.5424 44.4362 36.7284 44.5226C36.9145 44.609 37.1292 44.7385 37.2079 44.8105C37.2867 44.8825 37.4942 45.0121 37.6731 45.0912C38.1097 45.3 38.2957 45.408 38.4389 45.5376C38.5104 45.6023 38.6321 45.6671 38.7108 45.6959C38.7896 45.7175 39.0329 45.8543 39.2476 45.9911C39.4623 46.135 39.7843 46.315 39.9632 46.4014C40.1422 46.4805 40.3497 46.6101 40.4284 46.6821C40.5072 46.7541 40.7147 46.8837 40.8936 46.9628C41.3159 47.1644 41.5091 47.2796 41.6594 47.4091C41.7309 47.4667 41.9099 47.5747 42.0602 47.6395C42.2104 47.7115 42.4681 47.8555 42.6327 47.9634C42.7973 48.0786 43.0621 48.2226 43.2195 48.2946C43.377 48.3665 43.5702 48.4817 43.6489 48.5465C43.7277 48.6185 44.0282 48.7912 44.3145 48.9424C44.5936 49.0864 44.8513 49.2376 44.8727 49.2735C44.8942 49.3095 45.0803 49.4175 45.295 49.5111C45.5025 49.6119 45.6957 49.7198 45.7172 49.7558C45.7387 49.799 45.9605 49.9286 46.2039 50.0582C46.4544 50.1877 46.8193 50.3965 47.0269 50.5333C47.2273 50.67 47.4205 50.778 47.4491 50.778C47.4778 50.778 47.6638 50.886 47.8642 51.0156C48.0646 51.1523 48.3795 51.3251 48.5584 51.4043C48.7373 51.4907 48.9234 51.6058 48.9735 51.6706C49.0308 51.7354 49.1023 51.7858 49.1381 51.7858C49.181 51.7858 49.3528 51.8794 49.5317 52.0018C49.7035 52.1169 49.8752 52.2177 49.911 52.2177C49.9468 52.2177 50.1186 52.3113 50.2903 52.4337C50.4692 52.5488 50.641 52.6496 50.6839 52.6496C50.7197 52.6496 50.7913 52.7 50.8414 52.7648C50.8986 52.8224 51.1992 53.0023 51.5141 53.1607C51.8362 53.3191 52.194 53.5206 52.3157 53.607C52.6091 53.8158 52.9097 53.9885 53.5251 54.3269C53.7971 54.4852 54.0762 54.6508 54.1335 54.7012C54.1907 54.7516 54.3911 54.8595 54.5772 54.9459C54.7633 55.0251 54.9279 55.1259 54.9493 55.1619C54.9708 55.1979 55.2284 55.349 55.5075 55.493C55.7938 55.6442 56.0944 55.8169 56.1731 55.8817C56.2518 55.9465 56.4451 56.0617 56.6025 56.1409C56.76 56.22 57.0176 56.3712 57.175 56.472C57.3325 56.58 57.6116 56.7311 57.7905 56.8103C57.9694 56.8967 58.1627 57.0119 58.2128 57.0767C58.2629 57.1414 58.4704 57.271 58.6708 57.3718C58.8712 57.4654 59.136 57.6093 59.2505 57.6885C59.3721 57.7677 59.6369 57.9117 59.8373 58.0125C60.0449 58.1204 60.2309 58.2356 60.2596 58.2716C60.281 58.3076 60.553 58.466 60.8607 58.6243C61.1685 58.7827 61.4404 58.9411 61.4691 58.9842C61.4905 59.0202 61.6623 59.1282 61.8484 59.2074C62.0344 59.2938 62.2348 59.409 62.2992 59.4665C62.3708 59.5241 62.607 59.6681 62.836 59.7905C63.2439 59.9992 63.5874 60.2008 64.1385 60.5607C64.2816 60.6543 64.6538 60.863 64.9544 61.0142C65.2621 61.1726 65.5269 61.3309 65.5484 61.3669C65.577 61.4029 65.7344 61.4965 65.9062 61.5757C66.078 61.6549 66.2354 61.7484 66.264 61.7844C66.2855 61.8276 66.3928 61.8996 66.5002 61.9572C67.13 62.2811 67.452 62.4611 67.4878 62.5259C67.5093 62.5619 67.6954 62.6698 67.8957 62.7706C68.1033 62.8714 68.3681 63.0082 68.4826 63.0874C68.6043 63.1593 68.8619 63.3105 69.0551 63.4113C69.2555 63.5193 69.4774 63.6632 69.5561 63.7352C69.6348 63.8 69.8209 63.908 69.964 63.9584C70.2074 64.0448 70.2646 64.0376 70.5008 63.9008C70.8443 63.7208 72.0395 63.0226 72.2971 62.857C72.4045 62.785 72.6191 62.6698 72.7766 62.5907C72.934 62.5115 73.206 62.3459 73.3849 62.2235C73.5638 62.1084 73.7284 62.0076 73.7642 62.0076C73.7928 62.0076 74.0219 61.8852 74.2652 61.7269C74.5085 61.5757 74.8878 61.3525 75.1025 61.2374C75.3172 61.115 75.6106 60.9494 75.7466 60.8702C75.8826 60.7839 76.1259 60.6543 76.2834 60.5679C76.4408 60.4887 76.7342 60.3304 76.9275 60.208C77.5573 59.8337 78.1012 59.5601 78.2228 59.5601C78.3159 59.5601 78.3302 59.6033 78.2944 59.7905C78.2729 59.92 78.2157 60.4095 78.1727 60.8918C78.0725 62.1228 78.0296 62.2307 77.6074 62.5187C76.0687 63.5769 75.2957 64.0879 74.9594 64.2607C74.7447 64.3759 74.5371 64.4911 74.4942 64.527C74.4584 64.5558 74.2938 64.6566 74.1364 64.7502C73.9789 64.8366 73.7213 64.9877 73.5638 65.0741C73.4064 65.1677 72.9913 65.3909 72.6335 65.578C72.2828 65.758 71.9393 65.9523 71.882 66.0027C71.8248 66.0531 71.5671 66.2115 71.3095 66.3483C71.0518 66.485 70.6868 66.6794 70.4936 66.7874C70.1573 66.9745 70.1358 66.9745 69.8996 66.8665C69.7636 66.8018 69.5203 66.6578 69.3557 66.5426C69.1911 66.4346 68.9048 66.2763 68.7188 66.1899C68.5327 66.1107 68.3609 66.0027 68.3395 65.9667C68.3108 65.9235 68.1391 65.8156 67.9458 65.7148C67.7526 65.6212 67.4735 65.4556 67.3232 65.3477C67.1729 65.2469 66.8867 65.0885 66.6934 64.9949C66.493 64.9086 66.2855 64.779 66.2354 64.7142C66.1853 64.6494 66.1066 64.599 66.0708 64.599C66.0279 64.599 65.8561 64.4983 65.6772 64.3831C65.5054 64.2607 65.3337 64.1671 65.2979 64.1671C65.2621 64.1671 65.0903 64.0663 64.9186 63.9512C64.7397 63.8288 64.5607 63.7352 64.525 63.7352C64.482 63.7352 64.3603 63.6632 64.2458 63.5697C64.1385 63.4761 63.9309 63.3465 63.795 63.2817C63.3441 63.0586 62.8074 62.7418 62.4066 62.4611C62.2849 62.3747 62.0273 62.2235 61.8269 62.13C61.6337 62.0292 61.3474 61.8636 61.2043 61.77C61.0611 61.6693 60.8178 61.5325 60.6675 61.4605C60.5172 61.3957 60.3311 61.2805 60.2524 61.2158C60.1737 61.1438 59.8731 60.971 59.5868 60.8198C59.3077 60.6759 59.0573 60.5247 59.0358 60.4959C59.0143 60.4599 58.8211 60.3519 58.6064 60.2512C58.3988 60.1504 58.1985 60.028 58.177 59.992C58.1484 59.9488 57.8979 59.8049 57.6188 59.6609C57.3325 59.5241 57.0391 59.3442 56.9604 59.2722C56.8816 59.2002 56.7528 59.1282 56.6741 59.0994C56.5954 59.0778 56.352 58.9411 56.1373 58.8043C55.9226 58.6603 55.5791 58.466 55.3787 58.3724C55.1783 58.2788 54.9779 58.1564 54.935 58.0988C54.8849 58.0412 54.7132 57.9405 54.5485 57.8685C54.3768 57.7965 54.1836 57.6885 54.112 57.6309C53.9617 57.4942 53.7756 57.3934 53.2961 57.1558C53.0957 57.0551 52.9097 56.9399 52.8882 56.9039C52.8596 56.8607 52.7164 56.7743 52.5733 56.7095C52.4302 56.6376 52.2584 56.544 52.2012 56.4936C52.1368 56.436 51.8648 56.2776 51.5928 56.1337C51.3137 55.9897 50.9273 55.7593 50.7197 55.6298C50.5193 55.493 50.3261 55.385 50.2975 55.385C50.2689 55.385 50.1901 55.3418 50.1329 55.2842C50.0685 55.2339 49.7965 55.0683 49.5174 54.9171C49.2455 54.7732 48.9663 54.6076 48.9091 54.5572C48.8518 54.5068 48.6443 54.3772 48.4439 54.2765C48.2507 54.1685 47.993 54.0245 47.8714 53.9453C47.7569 53.8662 47.4921 53.7222 47.2917 53.6286C47.0913 53.5278 46.8909 53.3983 46.8408 53.3479C46.7979 53.2903 46.6046 53.1679 46.4186 53.0815C45.9963 52.8872 45.7959 52.772 45.6385 52.6352C45.5669 52.5776 45.3737 52.4697 45.2019 52.3977C45.0373 52.3257 44.8656 52.2249 44.8155 52.1673C44.7725 52.1097 44.5721 51.9874 44.3718 51.8938C44.1714 51.8002 43.8279 51.6058 43.6132 51.4619C43.3985 51.3251 43.1551 51.1883 43.0764 51.1667C42.9977 51.1379 42.876 51.0732 42.8044 51.0084C42.6613 50.8788 42.4752 50.7708 42.0387 50.5621C41.8598 50.4829 41.6522 50.3533 41.5735 50.2813C41.4948 50.2093 41.2872 50.0798 41.1083 49.9934C40.9294 49.907 40.6932 49.7702 40.5716 49.6982C40.4571 49.6191 40.1708 49.4607 39.9489 49.3383C39.7271 49.2232 39.5267 49.0936 39.4981 49.0576C39.4766 49.0144 39.219 48.8704 38.9255 48.7265C38.6321 48.5825 38.3745 48.4313 38.353 48.4025C38.3315 48.3665 38.1598 48.2658 37.9737 48.1794C37.7876 48.0858 37.5729 47.9562 37.4942 47.8914C37.4155 47.8267 37.1292 47.6539 36.8501 47.5099C36.5781 47.366 36.3062 47.2076 36.2418 47.1572C36.1845 47.1068 36.0414 47.0204 35.9197 46.9628C35.8052 46.9053 35.6549 46.8189 35.5977 46.7685C35.5333 46.7181 35.2613 46.5597 34.9894 46.4158C34.7103 46.2718 34.424 46.099 34.3453 46.0342C34.2665 45.9695 34.0518 45.8399 33.8658 45.7463C33.6797 45.6599 33.5079 45.5591 33.4865 45.516C33.4578 45.48 33.3863 45.4512 33.3147 45.4512C33.2431 45.4512 33.1429 45.4008 33.0928 45.3432C33.0427 45.2784 32.8853 45.1776 32.7422 45.1128C32.599 45.0481 32.4201 44.9401 32.3414 44.8753C32.2627 44.8033 31.9621 44.6305 31.6758 44.4794C31.3967 44.3354 31.1462 44.1842 31.1248 44.1554C31.1033 44.1195 30.9387 44.0259 30.7455 43.9323C30.5594 43.8459 30.3447 43.7163 30.266 43.6444C30.1872 43.5724 29.9797 43.4428 29.8008 43.3636C29.3642 43.1549 29.1781 43.0469 29.035 42.9173C28.9634 42.8525 28.8418 42.7877 28.7631 42.759C28.6843 42.7374 28.441 42.6006 28.2263 42.4638C28.0116 42.3198 27.6896 42.1399 27.5106 42.0535C27.3317 41.9743 27.1242 41.8448 27.0455 41.7728C26.9667 41.7008 26.7592 41.5712 26.5803 41.492C26.1509 41.2905 25.9648 41.1753 25.8145 41.0457C25.7429 40.9881 25.5783 40.8946 25.4495 40.8442C25.3207 40.7938 25.1275 40.6858 25.0201 40.5994C24.9199 40.5202 24.6694 40.3691 24.4691 40.2683L24.1112 40.0883L24.0897 38.663C24.0826 37.7776 24.0969 37.2449 24.1398 37.2449C24.1828 37.2449 24.3689 37.3385 24.5549 37.4465ZM38.1168 50.4685C38.2743 50.5837 38.4603 50.6988 38.5248 50.742C38.7681 50.8932 39.3549 51.3107 39.3907 51.3539C39.4122 51.3827 39.5339 51.4619 39.6555 51.5339C39.8201 51.6274 39.8988 51.7426 39.9275 51.8938C39.9418 52.009 39.9919 54.1325 40.0348 56.6088C40.1135 61.3453 40.1135 68.5942 40.042 77.7722L39.999 83.279L39.8273 83.3006C39.7342 83.315 39.6412 83.3006 39.6126 83.2646C39.5911 83.2358 39.4408 83.1422 39.2834 83.063C39.1259 82.9839 38.8397 82.8255 38.6393 82.7031C38.446 82.5807 38.1598 82.4152 38.0095 82.3432C37.8592 82.264 37.7017 82.1344 37.6588 82.0625C37.5729 81.8969 37.623 50.6125 37.7089 50.3965C37.7733 50.2381 37.7662 50.2381 38.1168 50.4685ZM42.783 53.3407C43.0979 53.5638 43.4772 53.8158 43.6132 53.9165C43.7491 54.0101 43.9638 54.1541 44.0855 54.2477L44.3074 54.406L44.3646 56.4648C44.4004 57.5949 44.429 63.073 44.4362 68.6446C44.4362 74.2162 44.4576 78.7872 44.4791 78.8088C44.5149 78.852 46.211 78.0097 46.6905 77.7146C46.8265 77.6282 47.3418 77.3475 47.8356 77.0883C48.3294 76.8292 48.8447 76.5484 48.9807 76.4693C49.1166 76.3829 49.4745 76.1813 49.7679 76.0302C50.0613 75.8718 50.3905 75.6774 50.4979 75.6055C50.5981 75.5263 50.7054 75.4687 50.7269 75.4687C50.7484 75.4687 50.9988 75.3247 51.2851 75.1591C51.5714 74.9864 52.0151 74.7272 52.2727 74.5761C52.5304 74.4321 52.881 74.2305 53.06 74.1226C53.2389 74.0218 53.5108 73.8634 53.6683 73.777C53.8257 73.6907 54.341 73.3811 54.8133 73.0932C55.2857 72.8053 55.7723 72.5173 55.8868 72.4525C56.0085 72.3877 56.5023 72.0926 56.9961 71.7975C57.4899 71.5023 57.9909 71.2144 58.1054 71.1496C58.2271 71.0848 58.5921 70.8617 58.9284 70.6529C59.2648 70.4442 59.6513 70.2066 59.7872 70.1346C59.9232 70.0555 60.1379 69.9331 60.2524 69.8611C60.3741 69.7891 60.6246 69.6451 60.8178 69.5372C61.011 69.4292 61.283 69.2636 61.4261 69.1628C61.5621 69.0693 61.7195 68.9901 61.7625 68.9901C61.8054 68.9901 61.9199 68.9109 62.0201 68.8245L62.199 68.6518L62.2563 66.665C62.2992 64.9949 62.3279 64.671 62.4137 64.671C62.6141 64.671 64.575 66.2979 64.618 66.4994C64.6967 66.8953 64.8685 69.7891 64.8255 69.9763C64.7826 70.1418 64.4749 70.3722 63.8665 70.6817C63.6518 70.7897 63.3727 70.9553 63.2511 71.0488C63.1294 71.1424 63.0077 71.2216 62.9791 71.2216C62.9576 71.2216 62.8002 71.308 62.6284 71.416C62.4638 71.5239 62.1203 71.7183 61.8627 71.8551C61.605 71.9846 61.3474 72.143 61.2901 72.1934C61.2329 72.2438 61.054 72.3518 60.8965 72.4381C60.7391 72.5245 60.5172 72.6541 60.3956 72.7333C60.281 72.8053 60.0663 72.9276 59.9304 72.9996C59.7944 73.0644 59.2791 73.3667 58.7853 73.6619C56.8315 74.8208 56.7528 74.8712 56.0228 75.2815C55.7509 75.4327 55.4431 75.6198 55.3358 75.6918C55.2284 75.771 54.9994 75.9078 54.8348 75.9942C54.3839 76.2389 54.1836 76.3613 54.0905 76.4477C54.0404 76.4909 53.8973 76.57 53.7613 76.6204C53.6325 76.678 53.4321 76.786 53.3104 76.8652C53.0886 77.0235 52.0366 77.6354 51.6644 77.8298C51.5499 77.8874 51.371 77.9953 51.2708 78.0601C51.0561 78.2113 49.8896 78.8951 49.589 79.0535C49.4745 79.1111 49.2455 79.2479 49.088 79.3558C48.9306 79.4566 48.6729 79.6078 48.5155 79.6798C48.358 79.7518 48.1433 79.8669 48.0431 79.9389C47.8642 80.0685 46.8909 80.6444 46.2611 80.9971C46.0822 81.0907 45.9104 81.1986 45.8675 81.2274C45.8317 81.2562 45.6385 81.3714 45.4381 81.4866C45.2449 81.5946 44.9872 81.7385 44.8656 81.8105C44.7511 81.8825 44.5077 82.0265 44.3288 82.1272C44.1499 82.228 43.9137 82.372 43.7921 82.444C43.6776 82.516 43.4271 82.6527 43.241 82.7607C43.0621 82.8615 42.7758 83.027 42.6112 83.135C42.4466 83.2358 42.2605 83.315 42.1961 83.3006C42.0816 83.279 42.0745 82.2424 42.053 68.2702C42.0458 60.0136 42.053 53.1895 42.0745 53.0959C42.0959 53.0095 42.1317 52.9375 42.1603 52.9375C42.1818 52.9375 42.4609 53.1175 42.783 53.3407ZM46.8909 55.7449C47.0197 55.8241 47.17 55.8889 47.2201 55.8889C47.2774 55.8889 47.3346 55.9105 47.3489 55.9393C47.3632 55.9753 47.5135 56.0689 47.6925 56.1625C47.8714 56.2488 48.1433 56.4 48.3008 56.5008C48.4582 56.5944 48.7159 56.7455 48.8733 56.8247C49.0308 56.9039 49.2884 57.0551 49.4458 57.1486C49.6033 57.2494 49.7965 57.3646 49.8752 57.4006C49.954 57.4438 50.1472 57.5518 50.3046 57.6525C50.4621 57.7533 50.6553 57.8685 50.734 57.9045C50.8128 57.9477 50.9416 58.0197 51.0203 58.0628C51.4569 58.3436 51.9077 58.6099 52.1296 58.7107C52.2656 58.7755 52.4516 58.8979 52.5375 58.977C52.6234 59.0634 52.7308 59.1282 52.7737 59.1282C52.8166 59.1282 53.0743 59.265 53.3319 59.4377C53.5967 59.6033 53.9402 59.8049 54.0977 59.8841C54.2551 59.9632 54.477 60.0928 54.5986 60.172C54.7132 60.244 54.9994 60.4095 55.2427 60.5319L55.6721 60.7551L55.6936 62.8786L55.7079 65.0021L55.2714 65.3045C55.0352 65.47 54.7919 65.6068 54.7418 65.6068C54.6917 65.6068 54.6344 65.6284 54.6201 65.6572C54.5915 65.7364 54.0834 66.0603 53.747 66.2115C53.5896 66.2835 53.246 66.485 52.9812 66.6578C52.7164 66.8305 52.4445 66.9745 52.3872 66.9745C52.3228 66.9745 52.2727 67.0033 52.2727 67.0321C52.2727 67.0681 52.1654 67.1473 52.0437 67.2121C51.9149 67.2769 51.7431 67.3776 51.6644 67.4208C51.1491 67.7519 50.7627 67.9751 50.505 68.0903C50.3333 68.1623 50.1973 68.2486 50.1973 68.2846C50.1973 68.3134 50.1687 68.3422 50.1257 68.3422C50.0899 68.3422 49.8824 68.4574 49.6677 68.5942C49.453 68.7309 49.224 68.8461 49.1596 68.8461C49.1023 68.8461 49.0522 68.8749 49.0522 68.9037C49.0522 68.9397 48.9449 69.0189 48.8232 69.0837C48.6944 69.1484 48.5226 69.2492 48.4439 69.2924C48.0574 69.5444 47.5565 69.8395 47.306 69.9619C47.1557 70.0411 46.9338 70.1562 46.805 70.2282C46.5975 70.3362 46.5832 70.3362 46.5331 70.2282C46.4758 70.077 46.4615 55.8745 46.5188 55.7162C46.576 55.5722 46.6046 55.5722 46.8909 55.7449ZM58.6636 62.5331C59.0072 62.8138 59.3936 63.1234 59.5224 63.2097C59.6513 63.3033 59.8874 63.5121 60.0592 63.6776L60.3598 63.98L60.324 64.5918C60.3097 64.9302 60.2739 65.6068 60.2524 66.0963C60.2309 66.5858 60.1809 67.0393 60.1522 67.1041C60.1164 67.1689 60.0306 67.3488 59.9662 67.5C59.8445 67.7807 59.3149 68.2342 59.0215 68.3134C58.9284 68.335 58.8569 68.3854 58.8569 68.4214C58.8569 68.4574 58.8211 68.4862 58.771 68.4862C58.728 68.4862 58.5849 68.5654 58.4561 68.6662C58.3273 68.7669 58.2056 68.8461 58.177 68.8461C58.1555 68.8461 57.9694 68.9541 57.7619 69.0837C57.5544 69.2132 57.2967 69.3644 57.175 69.422C57.0605 69.4796 56.8602 69.602 56.7385 69.6883C56.6168 69.7819 56.4952 69.8539 56.4665 69.8539C56.4451 69.8539 56.2876 69.9403 56.1302 70.0411C55.8725 70.1994 55.5219 70.401 55.028 70.6745C54.9493 70.7177 54.8348 70.7897 54.7776 70.8329C54.7203 70.8761 54.4484 71.0344 54.1692 71.1856C53.8973 71.3368 53.6397 71.4807 53.5967 71.5095C53.5609 71.5383 53.4106 71.6319 53.2747 71.7039C52.5017 72.1358 52.33 72.2366 52.0652 72.4021C51.9077 72.5029 51.7574 72.5893 51.736 72.5893C51.7145 72.5893 51.5284 72.6973 51.3209 72.8269C51.1133 72.9564 50.8342 73.122 50.6983 73.1868C50.5623 73.2588 50.3834 73.3523 50.3118 73.4027C49.7607 73.7483 49.4101 73.957 49.3814 73.957C49.36 73.957 49.1667 74.0722 48.952 74.209C48.7373 74.3457 48.5369 74.4609 48.5155 74.4609C48.494 74.4609 48.3079 74.5689 48.1004 74.6984C47.8928 74.828 47.6352 74.9792 47.5135 75.0368C47.399 75.0944 47.2058 75.2095 47.0841 75.2959C46.7764 75.5119 46.6046 75.5623 46.5331 75.4543C46.4687 75.3463 46.4544 72.9924 46.5188 72.7477C46.5474 72.6613 46.6046 72.5893 46.6476 72.5893C46.6905 72.5893 46.8551 72.5029 47.0126 72.3949C47.17 72.287 47.4921 72.0998 47.7282 71.9774C47.9644 71.8479 48.3437 71.6319 48.5656 71.4879C48.7874 71.3368 49.0236 71.2216 49.0809 71.2216C49.1381 71.2216 49.1954 71.2 49.2097 71.164C49.2383 71.0992 49.725 70.7897 50.0899 70.6097C50.2474 70.5305 50.412 70.4298 50.4621 70.3794C50.5122 70.3362 50.7054 70.221 50.8986 70.1274C51.0847 70.0339 51.2493 69.9475 51.2708 69.9259C51.328 69.8683 51.6286 69.6955 52.0222 69.494C52.2226 69.3932 52.5304 69.206 52.7164 69.0765C52.9025 68.9541 53.0671 68.8461 53.0957 68.8461C53.1172 68.8461 53.3033 68.7381 53.5108 68.6086C53.7184 68.479 53.9331 68.3494 53.9903 68.3206C54.0476 68.2918 54.1621 68.227 54.2337 68.1839C54.7203 67.8671 55.1354 67.6224 55.1926 67.6224C55.2284 67.6224 55.3143 67.5576 55.3787 67.4856C55.4503 67.4064 55.5791 67.3272 55.6793 67.3056C55.7723 67.2769 55.8511 67.2265 55.8511 67.1905C55.8511 67.1473 55.9083 67.1185 55.9727 67.1185C56.0371 67.1185 56.1445 67.0753 56.2017 67.0177C56.2662 66.9673 56.4594 66.8449 56.6383 66.7514C56.8172 66.6578 57.125 66.4562 57.3253 66.3123C57.7762 65.9883 57.7619 66.0603 57.8263 63.7136C57.8621 62.5403 57.8979 62.0076 57.9551 62.0076C57.9981 62.0076 58.3201 62.2451 58.6636 62.5331Z" fill="#446ACD"/>
<defs>
<filter id="filter0_d_34_39" x="85.397" y="37.1591" width="161.497" height="36.9773" filterUnits="userSpaceOnUse" color-interpolation-filters="sRGB">
<feFlood flood-opacity="0" result="BackgroundImageFix"/>
<feColorMatrix in="SourceAlpha" type="matrix" values="0 0 0 0 0 0 0 0 0 0 0 0 0 0 0 0 0 0 127 0" result="hardAlpha"/>
<feOffset dy="4"/>
<feGaussianBlur stdDeviation="2"/>
<feComposite in2="hardAlpha" operator="out"/>
<feColorMatrix type="matrix" values="0 0 0 0 0 0 0 0 0 0 0 0 0 0 0 0 0 0 0.25 0"/>
<feBlend mode="normal" in2="BackgroundImageFix" result="effect1_dropShadow_34_39"/>
<feBlend mode="normal" in="SourceGraphic" in2="effect1_dropShadow_34_39" result="shape"/>
</filter>
</defs>
</svg>
