<?xml version="1.0" encoding="utf-8"?>
<svg viewBox="0 0 144 96" xmlns="http://www.w3.org/2000/svg" xmlns:bx="https://boxy-svg.com">
  <defs>
    <style bx:fonts="AR One Sans">@import url(https://fonts.googleapis.com/css2?family=AR+One+Sans%3Aital%2Cwght%400%2C400%3B0%2C500%3B0%2C600%3B0%2C700&amp;display=swap);</style>
  </defs>
  <path d="M0 0 C0.48428405 7.14318976 0.48428405 7.14318976 -1.625 10.875 C-6.39134058 15.13962052 -12.90147807 15.70637414 -19 17 C-19 20.96 -19 24.92 -19 29 C-15.64029566 26.76019711 -15.31304575 25.65777032 -14 22 C-13 21 -13 21 -10.0625 20.875 C-7 21 -7 21 -5 22 C-4.8125 24.375 -4.8125 24.375 -5 27 C-8 29 -8 29 -11.4375 29.9375 C-15.76423769 31.15375586 -15.76423769 31.15375586 -19 34 C-19.56995807 37.01333695 -19.46405205 39.98616479 -19.390625 43.04296875 C-19.38213531 44.36836418 -19.38213531 44.36836418 -19.37347412 45.72053528 C-19.35107867 48.54340743 -19.30087727 51.36501138 -19.25 54.1875 C-19.22993906 56.10089313 -19.21168758 58.01430615 -19.1953125 59.92773438 C-19.15120357 64.61897842 -19.08215485 69.30927418 -19 74 C-15.62622045 71.81614678 -15.62622045 71.81614678 -14.3125 68.07421875 C-14.209375 66.95660156 -14.10625 65.83898437 -14 64.6875 C-13.15899314 58.10570719 -11.4852889 54.63591247 -6.9375 49.8125 C1.69196031 44.48793938 11.14621789 44.61160275 21 45 C21.45176607 52.52943454 21.64018557 58.76475064 17 65 C10.59776764 71.85953467 2.85128151 73.0101807 -6.25 73.375 C-11.81770833 73.62774467 -11.81770833 73.62774467 -16.8125 75.8125 C-20.08477256 80.58066859 -19.98191727 85.33106321 -20 91 C-20.99 91.33 -21.98 91.66 -23 92 C-22.99045288 90.9941687 -22.99045288 90.9941687 -22.98071289 89.96801758 C-22.97200146 86.91505745 -23.01672002 83.86510924 -23.0625 80.8125 C-23.04606445 79.22985352 -23.04606445 79.22985352 -23.02929688 77.61523438 C-23.0146375 72.00673427 -23.0146375 72.00673427 -25.48217773 67.19213867 C-29.33243282 64.35567624 -33.36702263 63.04005614 -38 62 C-38.495 59.525 -38.495 59.525 -39 57 C-35.77626323 54.85084215 -34.73296326 54.61713197 -31 55 C-29 57 -29 57 -28.0625 59.5 C-27.1416526 62.30191747 -27.1416526 62.30191747 -24 64 C-23.83707746 61.60141818 -23.71882453 59.21396107 -23.625 56.8125 C-23.57472656 56.13896484 -23.52445313 55.46542969 -23.47265625 54.77148438 C-23.35439942 50.73104282 -23.85475504 49.16922622 -26.5078125 46.078125 C-30.21680147 43.45142579 -33.8142034 43.17393703 -38.25 42.9375 C-46.72377791 42.19016176 -54.40060863 41.17993091 -60.5 34.6875 C-64.10969861 29.88476541 -65.09324005 25.20046099 -65.0390625 19.2734375 C-65.03342285 18.47083496 -65.0277832 17.66823242 -65.02197266 16.84130859 C-65.01472168 16.23367676 -65.0074707 15.62604492 -65 15 C-42.74132492 14.12711078 -42.74132492 14.12711078 -35.140625 20.578125 C-30.51048041 25.47284928 -29.19274846 30.64237436 -28.625 37.25 C-28.36989772 41.44182228 -28.36989772 41.44182228 -24 44 C-23.67 35.09 -23.34 26.18 -23 17 C-25.98806107 15.50596946 -28.89656201 14.20689255 -32 13 C-31.67 11.68 -31.34 10.36 -31 9 C-29.35 9 -27.7 9 -26 9 C-25.505 10.485 -25.505 10.485 -25 12 C-22.99983534 13.20882096 -22.99983534 13.20882096 -21 14 C-20.67128906 12.98679687 -20.67128906 12.98679687 -20.3359375 11.953125 C-18.83716256 7.7370589 -17.59314649 4.60761348 -14.4375 1.375 C-9.59323259 -0.56270696 -5.15062174 -0.32993307 0 0 Z M-14 5 C-15.04289755 7.06890419 -15.04289755 7.06890419 -15 9 C-14.4225 8.690625 -13.845 8.38125 -13.25 8.0625 C-11.15705816 7.07416636 -9.25464725 6.4831387 -7 6 C-8.65 7.98 -10.3 9.96 -12 12 C-8.89903219 11.65544802 -7.20062862 11.15182706 -4.6875 9.25 C-2.69070796 6.58761061 -2.63883591 5.25047681 -3 2 C-7.51561274 2 -10.03126406 2.90330932 -14 5 Z M-62 17 C-61.84304511 23.96308981 -61.04492982 29.8601068 -56 35 C-50.71159454 38.25222796 -44.96782594 40.16613043 -38.75 40.0625 C-37.5125 40.041875 -36.275 40.02125 -35 40 C-38.79190412 35.97391653 -43.10166949 33.03182807 -47.63671875 29.90234375 C-50 28 -50 28 -51 25 C-44.27081302 28.43936223 -38.75099739 33.13297147 -33 38 C-31.69262983 34.07788948 -32.49955608 32.09700719 -33.8515625 28.2890625 C-36.17739152 23.65322642 -40.03638124 21.00575595 -44.5625 18.6875 C-50.41828553 17.03586818 -55.96281455 16.87925629 -62 17 Z M-10 23 C-10.66 23.66 -11.32 24.32 -12 25 C-10.68 25 -9.36 25 -8 25 C-8.66 24.34 -9.32 23.68 -10 23 Z " fill="#3BB270" transform="matrix(1, 0, 0, 1, 67, 2)"/>
  <path d="M0 0 C3.96 0 7.92 0 12 0 C12 0.66 12 1.32 12 2 C10.35 2 8.7 2 7 2 C7 5.3 7 8.6 7 12 C6.01 12 5.02 12 4 12 C4 8.7 4 5.4 4 2 C2.68 2 1.36 2 0 2 C0 1.34 0 0.68 0 0 Z " fill="#E9F6EF" transform="matrix(1, 0, 0, 1, 65, 54)"/>
  <text style="fill: rgb(58, 178, 112); font-family: 'AR One Sans'; font-weight: 700; white-space: pre;" x="90.456" y="64.9">FARMS</text>
  <text style="white-space: pre; fill: rgb(51, 51, 51); font-family: Arial, sans-serif; font-size: 1.7px;" x="107.253" y="51.197"> </text>
  <text style="fill: rgb(58, 178, 112); font-family: Arial, sans-serif; font-size: 4.4px; font-weight: 700; white-space: pre; transform-origin: 104.042px 68.9412px;" x="90.88" y="70.496" transform="matrix(1.060027003288, -0.003502000123, 0.003329999978, 1.007994055748, 0.790064919072, 0.01683101305)">We Cultivate</text>
</svg>